<?xml version="1.0" encoding="UTF-8"?>
<svg id="Layer_2" data-name="Layer 2" xmlns="http://www.w3.org/2000/svg" viewBox="0 0 500 500">
  <defs>
    <style>
      .cls-1 {
        fill: #19bdc2;
      }

      .cls-1, .cls-2, .cls-3 {
        stroke-width: 0px;
      }

      .cls-2 {
        fill: #0684a9;
      }

      .cls-3 {
        fill: #00537e;
      }
    </style>
  </defs>
  <g id="Layer_1-2" data-name="Layer 1">
    <g>
      <path class="cls-3" d="m252.36,0h3.33c3.56,2.67,6.45,5.85,5.85,12.05-.26,2.72,1.2,2.24,2.44,2.01,2.11.05,4,1,5.79,2.41,4.2,7.16,1.31,14.52.36,21.82-.57,3.67-1.15,7.35-1.72,11.02-.96,6.54-1.92,13.09-2.88,19.63-1.21,4.27-1.81,8.71-2.21,13.22-1.94,10.88-3.96,21.73-5.15,32.81-1.41,4.22-1.47,8.84-2.35,13.22-1.04,6.28-1.98,12.6-3.18,18.83-.51,2.67.18,3.25,1.94,3.01,3.13-.42,6.26-.84,9.4-1.26,3.09-.49,6.19-.98,9.28-1.47,4.69-.61,9.38-1.21,14.08-1.82,3.68-.64,7.45-.39,11.05-1.85,4.38-.48,8.76-.95,13.13-1.43,3.35-.49,6.69-.97,10.04-1.46,7.2-.97,14.39-1.95,21.59-2.92.32-.07.64-.14.96-.21,7.46-1.03,14.91-2.05,22.37-3.08,6.43-.85,12.86-1.71,19.28-2.56,4.69-.61,9.38-1.21,14.08-1.82,3.36-.49,6.73-.98,10.09-1.46,6.91-.97,13.82-1.94,20.72-2.92.58-.06,1.16-.12,1.74-.18,7.47-1.03,14.95-2.07,22.42-3.1.58-.06,1.16-.12,1.74-.18,7.47-1.03,14.95-2.07,22.42-3.1,2.66-.02,5.29.12,7.57,2.27,1.36,2.46,2.85,4.91,2.62,8.19-.24,3.56,1.54,2.99,3.15,2.89,2.62.99,4.75,3.02,6.69,5.46.32,3.28.65,6.56.97,9.84,0,5.49,0,10.98,0,16.46s0,10.93,0,16.39,0,10.98,0,16.46,0,10.93,0,16.39,0,10.98,0,16.46,0,10.93,0,16.39,0,10.98,0,16.46,0,10.93,0,16.39,0,10.98,0,16.46,0,10.93,0,16.39,0,10.98,0,16.46,0,10.93,0,16.39v16.47c-.43,1.77-.86,3.54-1.3,5.32-1.59,1.45-3.17,2.89-4.76,4.34-8.36.15-16.58-1.96-24.88-2.74-.58-.06-1.16-.12-1.74-.18-6.91-.97-13.82-1.94-20.72-2.91-2.66-.33-5.33-.67-7.99-1l-.21.06c-.62-.17-1.24-.35-1.85-.52-4.43-.49-8.87-.99-13.3-1.48-3.9-.6-7.8-1.2-11.7-1.81-1.38-.07-2.77-.14-4.15-.2-9.38-2.31-18.9-3.08-28.39-4.18-6.69-.88-13.38-1.77-20.07-2.65l-.26-.37-.36.16c-.26,0-.53.02-.79.02l.09.22c-.33-.16-.66-.31-.99-.47-.32-.07-.64-.14-.96-.2-7.19-.97-14.37-1.94-21.56-2.91-3.35-.49-6.71-.97-10.06-1.46-4.43-.49-8.87-.99-13.3-1.48-3.56-1.37-7.27-1.13-10.89-1.81-9.2-1-18.33-3.13-27.58-3.43-4.04-1.58-8.26-1.35-12.39-2.04-1.36-.17-2.73-.24-4.08-.51q-6.31-1.3-4.97,6.86c.6,4.05,1.2,8.09,1.81,12.14,1.06,6.91,2.13,13.82,3.19,20.73.53,4.84,1.02,9.69,2.35,14.3,1.03,12.2,3.53,24.03,5.15,36.07.6,4.05,1.2,8.09,1.81,12.14,1.06,6.91,2.13,13.81,3.19,20.72.53,4.84,1.02,9.7,2.35,14.31.56,5.09,1.11,10.19,1.67,15.28-.99,2.91-2.22,5.59-4.18,7.58-4.88,2.02-8.62-.73-12.38-4.53-5.99-6.03-12.25-11.61-18.4-17.38-.28-.36-.55-.72-.83-1.08-3.79-3.85-7.46-7.92-11.66-11-.9-2.27-2.65-3.08-4.2-4.23-2.62-2.87-5.16-5.9-8.3-7.82-7.92-8.77-16.4-16.56-24.89-24.32-.97-1.36-1.97-2.66-3.44-3.06-2.58-3.76-5.83-6.37-9.06-8.99-2.54-2.46-5.07-4.93-7.61-7.39-1.31-2.13-3.13-3.35-4.89-4.65-8.44-8.7-16.99-17.22-25.95-24.98-.35-1.01-.86-1.79-1.74-2.01-3.03-2.93-6.07-5.86-9.1-8.79-8.63-8.37-17.25-16.75-25.88-25.12-3.88-3.67-7.76-7.34-11.64-11-1.8-2.09-3.6-4.2-5.8-5.58-1.81-1.99-3.37-4.46-5.75-5.41-12.74-13.39-26.11-25.68-39.27-38.32h.02c-.56-.4-1.11-.82-1.67-1.24-.74-1.65-1.72-2.88-3.24-3.16-2.11-3.28-4.96-5.29-7.61-7.65h.02c-.83-.75-1.67-1.52-2.5-2.28-2.22-2.33-4.33-4.88-6.7-6.93-4.38-3.79-6.13-10.71-10.83-14.35-6.31-4.9-6.39-12.61-.73-18.79,2.93-3.2,6.1-6.03,9.16-9.03,3.25-2.6,6.46-5.27,9.19-8.79,1.09-.15,1.93-.78,2.41-2.12,12.83-11.05,25.29-22.79,37.61-34.78,3.59-2.51,6.79-5.75,9.95-9.08.8-.75,1.61-1.51,2.41-2.26,8.85-7.63,17.48-15.65,25.93-24.03,3.31-2.49,6.44-5.3,9.19-8.78,1.08-.15,1.93-.78,2.41-2.12,8.92-7.19,17.2-15.6,25.73-23.52,1.75-1.58,3.73-2.74,5.11-4.97,2.78-1.65,5.02-4.36,7.46-6.68,3.55-3.32,7.11-6.64,10.66-9.96l1.01-.99c7.97-6.93,15.94-13.86,23.36-21.79.56-.4,1.11-.8,1.67-1.2,0,0-.02.01-.02.01,3.89-3.66,7.77-7.32,11.66-10.98.29-.33.57-.65.86-.98,8.65-7.09,16.88-14.96,25.03-22.97,2.48-2.24,4.96-4.48,7.44-6.72,1.94-1.82,3.89-3.65,5.83-5.47,4.88-3.69,9.01-8.91,14.17-12.05Zm-20.05,174.31c-7.86-.5-11.95-5.47-10.67-13.44,3.44-21.5,7.09-42.94,10.54-64.44,1.81-11.27,3.38-22.62,5.06-33.93,1.91-8.79,3.19-17.73,4.46-26.87-1.66.13-2.49,1.08-3.4,1.92-17.09,15.87-34.19,31.72-51.29,47.57-24.43,22.63-48.86,45.26-73.29,67.87-29.84,27.61-59.66,55.25-89.59,82.69-2.61,2.39-2.41,3.6-.19,5.66,3.37,3.14,6.71,6.33,10.06,9.51,69.25,67,138.51,134.01,208.34,201.57-2.04-13.48-3.94-26-5.81-38.52-4.83-32.28-9.6-64.58-14.52-96.84-1.4-9.16,3.12-15.29,10.2-14.11,9.43,1.58,18.93,2.51,28.39,3.73,9.06,1.17,18.12,2.27,27.16,3.53,12.05,1.68,24.08,3.66,36.14,5.16,9.2,1.15,18.37,2.63,27.59,3.58,11.94,1.23,23.8,3.55,35.72,5.2,12.2,1.69,24.43,3.05,36.64,4.69,15.21,2.04,30.44,3.9,45.6,6.52,4.27.74,4.52-1.04,4.52-5.53-.08-56.38-.05-112.75-.08-169.13,0-1.74.5-3.68-.66-5.19.22-3.68.52-7.35.63-11.03.08-2.71-1.08-3.54-3.09-3.27-6.29.87-12.6,1.5-18.89,2.38-14.88,2.09-29.74,4.31-44.62,6.39-14.63,2.04-29.27,3.97-43.9,5.95-12.56,1.69-25.11,3.39-37.67,5.07-11.35,1.52-22.7,2.98-34.04,4.53-12.83,1.75-25.68,3.35-38.48,5.41-6.95,1.12-14,1.16-20.85,3.37Z"/>
      <path class="cls-1" d="m237.24,62.5c-1.68,11.31-3.24,22.65-5.06,33.93-3.45,21.5-7.1,42.94-10.54,64.44-1.27,7.97,2.81,12.94,10.67,13.44.16,11.01,2.25,13.68,10.67,12.94,5.49-.49,10.95-1.41,16.43-2.14,18.34-2.46,36.68-4.89,55.02-7.39,13.69-1.87,27.36-3.87,41.05-5.74,17.66-2.41,35.31-4.77,52.97-7.13,15.2-2.03,30.41-3.86,45.59-6.11,6.4-.95,12.89-1.16,19.18-3.24,1.17,1.52.66,3.45.66,5.19.03,56.38,0,112.75.08,169.13,0,4.49-.25,6.27-4.52,5.53-15.16-2.62-30.39-4.48-45.6-6.52-12.21-1.64-24.44-3-36.64-4.69-11.91-1.65-23.78-3.97-35.72-5.2-9.22-.95-18.39-2.43-27.59-3.58-12.06-1.5-24.09-3.49-36.14-5.16-9.05-1.26-18.11-2.37-27.16-3.53-9.47-1.22-18.96-2.15-28.39-3.73-7.08-1.18-11.59,4.95-10.2,14.11,4.92,32.26,9.69,64.56,14.52,96.84,1.88,12.52,3.78,25.04,5.81,38.52-69.83-67.56-139.08-134.57-208.34-201.57.34-.57.59-1.29,1.02-1.69,24.15-22.36,48.32-44.68,72.46-67.04,24.6-22.78,49.19-45.58,73.78-68.38,11.5-10.67,22.89-21.57,34.51-32.01,7.15-6.42,13.88-13.65,21.46-19.23Z"/>
      <path class="cls-2" d="m237.24,62.5c-7.58,5.59-14.32,12.81-21.46,19.23-11.62,10.44-23.01,21.34-34.51,32.01-24.59,22.81-49.18,45.61-73.78,68.38-24.15,22.36-48.32,44.68-72.46,67.04-.43.4-.68,1.12-1.02,1.69-3.35-3.17-6.69-6.37-10.06-9.51-2.22-2.07-2.42-3.27.19-5.66,29.93-27.44,59.75-55.09,89.59-82.69,24.44-22.61,48.87-45.24,73.29-67.87,17.1-15.84,34.21-31.69,51.29-47.57.91-.84,1.73-1.79,3.4-1.92-1.27,9.14-2.55,18.09-4.46,26.87Z"/>
      <path class="cls-2" d="m473.22,155.5c-6.29,2.08-12.78,2.29-19.18,3.24-15.18,2.25-30.39,4.08-45.59,6.11-17.66,2.36-35.32,4.71-52.97,7.13-13.69,1.87-27.36,3.88-41.05,5.74-18.34,2.5-36.68,4.93-55.02,7.39-5.48.73-10.94,1.66-16.43,2.14-8.42.74-10.51-1.92-10.67-12.94,6.84-2.22,13.9-2.25,20.85-3.37,12.8-2.06,25.65-3.67,38.48-5.41,11.34-1.54,22.7-3.01,34.04-4.53,12.56-1.68,25.11-3.38,37.67-5.07,14.64-1.98,29.27-3.9,43.9-5.95,14.88-2.08,29.75-4.3,44.62-6.39,6.29-.88,12.6-1.51,18.89-2.38,2.01-.28,3.17.56,3.09,3.27-.11,3.68-.41,7.35-.63,11.03Z"/>
    </g>
  </g>
</svg>