<?xml version="1.0" encoding="UTF-8"?>
<svg id="Layer_2" data-name="Layer 2" xmlns="http://www.w3.org/2000/svg" xmlns:xlink="http://www.w3.org/1999/xlink" viewBox="0 0 1563 1080">
  <defs>
    <style>
      .cls-1 {
        fill: #0184a9;
      }

      .cls-1, .cls-2, .cls-3, .cls-4, .cls-5, .cls-6 {
        stroke-width: 0px;
      }

      .cls-2 {
        fill: rgba(224, 247, 230, .5);
      }

      .cls-3 {
        fill: #01bfc4;
      }

      .cls-4 {
        fill: rgba(169, 232, 219, .5);
      }

      .cls-5, .cls-7 {
        fill: none;
      }

      .cls-8 {
        filter: url(#drop-shadow-1);
      }

      .cls-7 {
        stroke: #02537d;
        stroke-linecap: round;
        stroke-width: 20px;
      }

      .cls-6 {
        fill: #e3fcf9;
      }

      .cls-9 {
        opacity: .4;
      }

      .cls-10 {
        filter: url(#drop-shadow-2);
      }

      .cls-11 {
        clip-path: url(#clippath);
      }
    </style>
    <clipPath id="clippath">
      <rect class="cls-5" width="1563" height="1080"/>
    </clipPath>
    <filter id="drop-shadow-1" filterUnits="userSpaceOnUse">
      <feOffset dx="0" dy="6"/>
      <feGaussianBlur result="blur" stdDeviation="4"/>
      <feFlood flood-color="#000" flood-opacity=".25"/>
      <feComposite in2="blur" operator="in"/>
      <feComposite in="SourceGraphic"/>
    </filter>
    <filter id="drop-shadow-2" filterUnits="userSpaceOnUse">
      <feOffset dx="0" dy="6"/>
      <feGaussianBlur result="blur-2" stdDeviation="4"/>
      <feFlood flood-color="#000" flood-opacity=".25"/>
      <feComposite in2="blur-2" operator="in"/>
      <feComposite in="SourceGraphic"/>
    </filter>
  </defs>
  <g id="Layer_1-2" data-name="Layer 1">
    <g class="cls-9">
      <g class="cls-11">
        <g>
          <rect class="cls-1" width="1563" height="1080"/>
          <path class="cls-4" d="m416.8,445.08C207.89,422.43,116.14,562.68,0,636.5v446.66h1563V486.74c-70.55,56.43-123.74,213.05-388.58,272.11-331.05,73.83-485.18-284.24-757.62-313.77Z"/>
          <path class="cls-2" d="m1157.22,526.29c247.04,0,324.16,140.62,405.78,200.92v353.85H0v-237.83c24.38,0,211.83,79.63,466.46-27.42,346.17-145.54,393.67-289.51,690.75-289.51Z"/>
          <g class="cls-8">
            <path class="cls-6" d="m1086.65,798.83c-57.63,0-114.15-12.43-170.98-37.45-75.79-33.36-143.21-84.68-208.41-134.32-94.79-72.16-184.32-140.31-293.11-152.1-146.01-15.83-240.58,62.13-332.03,137.51-31.29,25.79-60.84,50.15-91.4,69.58-13,8.26-29.58,3.3-37.05-11.08-7.46-14.38-2.98-32.73,10.01-40.99,27.76-17.65,56.06-40.97,86.01-65.66,45.18-37.24,96.39-79.46,155.84-109.37,69.24-34.84,139.21-47.84,213.9-39.75,122.73,13.3,222.29,89.1,318.58,162.39,129.55,98.62,251.92,191.77,431.03,151.82,190.66-42.52,276.27-144.84,338.78-219.56,21.59-25.8,40.23-48.08,59.88-63.8,12.14-9.71,29.11-6.69,37.89,6.75,8.78,13.44,6.05,32.21-6.1,41.92-15.29,12.23-32.23,32.48-51.85,55.93-63.73,76.17-160.04,191.28-367.89,237.63-31.49,7.02-62.47,10.54-93.13,10.55Z"/>
          </g>
          <g class="cls-10">
            <path class="cls-7" d="m1585.79,750.94c-69.47-69.61-179.09-225.18-426.57-225.18-297.6,0-341.75,151.95-691.95,289.51-255.07,100.2-442.85,27.42-467.27,27.42"/>
          </g>
          <ellipse class="cls-3" cx="231.19" cy="147.66" rx="60.78" ry="59.06"/>
          <ellipse class="cls-3" cx="1416.47" cy="105.47" rx="60.78" ry="59.06"/>
          <ellipse class="cls-3" cx="1036.57" cy="383.91" rx="60.78" ry="59.06"/>
          <ellipse class="cls-3" cx="730.49" cy="248.91" rx="30.39" ry="29.53"/>
          <ellipse class="cls-3" cx="87.92" cy="227.81" rx="21.71" ry="21.09"/>
          <ellipse class="cls-3" cx="561.16" cy="79.1" rx="21.71" ry="21.09"/>
          <ellipse class="cls-3" cx="743.51" cy="505.2" rx="21.71" ry="21.09"/>
          <ellipse class="cls-3" cx="1511.99" cy="185.63" rx="21.71" ry="21.09"/>
          <ellipse class="cls-3" cx="1446.32" cy="291.62" rx="13.57" ry="13.18"/>
          <ellipse class="cls-3" cx="1408.33" cy="218.85" rx="13.57" ry="13.18"/>
          <ellipse class="cls-3" cx="1325.84" cy="383.38" rx="13.57" ry="13.18"/>
          <ellipse class="cls-3" cx="1446.32" cy="553.18" rx="13.57" ry="13.18"/>
          <ellipse class="cls-3" cx="989.36" cy="497.29" rx="13.57" ry="13.18"/>
          <ellipse class="cls-3" cx="1103.33" cy="92.29" rx="13.57" ry="13.18"/>
          <ellipse class="cls-3" cx="500.92" cy="357.01" rx="13.57" ry="13.18"/>
          <ellipse class="cls-3" cx="208.94" cy="341.19" rx="38.53" ry="37.44"/>
          <ellipse class="cls-3" cx="1394.22" cy="461.43" rx="38.53" ry="37.44"/>
        </g>
      </g>
    </g>
  </g>
</svg>