<?xml version="1.0" encoding="UTF-8"?>
<svg id="Layer_1" data-name="Layer 1" xmlns="http://www.w3.org/2000/svg" viewBox="0 0 1920 1080">
  <defs>
    <style>
      .cls-1 {
        fill: #e2f1e4;
        stroke-width: 0px;
      }
    </style>
  </defs>
  <g>
    <path class="cls-1" d="m1828.29,651.7s0,0,.01-.01c0,0,0-.02-.01-.03,0,.01,0,.02,0,.03,0,0,0,0,0,0Z"/>
    <path class="cls-1" d="m1827.2,655.16c-.66-.36-1.37-.73-2.07-1.12-1.02-.56-2.22-1.27-3.11-.2-1.07,1.29.02,2.5.82,3.47.61.74,1.44,1.72,2.25,1.79,5.45.53,5.07,4.73,5.74,9.01-4.48-2.01-8.59-3.6-13.1-3.17-1.3.12-2.71.18-3.24,1.71-.5,1.46.41,2.52,1.27,3.54,3.73,4.41,8.53,5.36,13.74,3.91,2.55-.71,3.38,0,4.08,2.39,1.43,4.92,3.07,9.79,4.83,14.61,1.82,4.99,3.88,9.89,6.04,15.33-4.07-.7-7.07-2.94-10.61-2.07-1.98-.45-4.16-.72-5.07,1.53-.93,2.29,1.12,3.7,2.54,4.89,3.15,2.64,6.76,3.89,10.87,2.53,1.87.82,4.13-2.7,5.63.21,3.35,6.47,6.42,13.1,9.63,19.72-2.25.69-4.88-2.28-5.51.74-.54,2.57,2.24,3.68,4.53,4.26.62.16,1.31.16,1.94.07,1.31-.19,2.15.36,2.8,1.48,2.13,3.65,4.3,7.27,6.92,11.69-4.49-1.23-7.94-2.94-11.73-2.33-1.4.22-3.13.01-3.69,1.82-.53,1.69.67,2.8,1.67,3.89,3.91,4.28,8.72,4.85,13.92,3.3,1.55-.46,2.9-1.62,4.22.4,4.56,6.94,9.18,13.83,14.03,21.12-3.02-.3-5.4-.65-7.79-.72-1.06-.03-2.48-.06-2.97,1.25-.55,1.47.46,2.53,1.4,3.46,2.98,2.96,6.61,3.76,10.38,2.37,2.51-.92,3.7-.33,5.19,1.76,3.74,5.24,7.56,10.46,11.8,15.27,2.71,3.08,3.6,6.4,3.79,10.86-4.78-2.71-8.79-5.62-12.68-8.81-2.92-2.39-5.67-4.44-2.85-8.79.95-1.46.11-3.25-.56-4.78-.4-.9-.9-1.87-2.05-1.85-1.23.02-1.43,1.16-1.82,2.05-.69,1.59.25,3.7-1.51,5.07-6.31-5.32-12.65-10.51-19.97-14.22-2.19-1.11-2.25-1.9-1.02-4.01,2.52-4.32,3.33-9.02.85-13.75-.84-1.61-1.86-3.5-3.9-3.24-1.86.24-2.1,2.3-2.63,3.86-1.45,4.28-.53,8.67-.18,13.42-11.31-4.5-21.69-9.91-32.76-13.54-2.25-.74-1.83-1.51-.85-3.1,2.57-4.16,3.4-8.64,1.37-13.31-.78-1.8-1.73-3.98-3.97-3.91-2.47.08-2.68,2.63-3.2,4.46-1.22,4.3-.29,8.66.53,13.77-8.58-4.07-16.33-7.85-24.18-11.42-2.39-1.08-2.79-1.79-1.16-4.2,2.82-4.18,3.58-8.93,1.28-13.72-.77-1.6-1.73-3.54-3.8-3.43-2.21.12-2.55,2.32-3.09,4.01-1.34,4.2-.52,8.48.1,13.58-7.92-5.23-15.22-10.11-22.58-14.88-2.08-1.35-.56-2.6-.03-3.75,1.7-3.71,2.02-7.35-.15-10.95-.59-.98-1.32-2.02-2.66-1.86-1.36.16-1.71,1.42-2.12,2.47-1.39,3.5-.39,7.12-.25,11.1-3.52-1.48-6.4-2.69-8.85-5.86-4.2-5.42-10.43-7.85-17.24-8.01-4.68-.11-5.71,2.11-3.25,6.34,3.49,5.99,11.74,9.1,18.82,6.96,1.91-.58,3.63-1.07,5.62-.19,6.42,2.85,12.69,5.93,18.12,10.54.6.16,1.21.41.95,1.17-.08.22-.75.22-1.15.33-3.47,1.79-7.33,2.93-9.99,6.05-1.11,1.3-3.02,2.53-2.02,4.64.94,1.99,3.09,1.71,4.8,1.66,5.28-.15,8.6-3.55,11.24-7.74.81-1.28,1.1-2.95,3.08-1.67,3.9,2.5,7.79,5.02,11.94,7.7-1.46.98-2.58,1.6-3.54,2.42-.82.7-2.15,1.49-1.53,2.77.7,1.42,2.16,1.24,3.45.74.75-.3,1.72-.54,2.14-1.14,3.76-5.3,6.61-1.17,10.55.76-4.7,1.63-8.28,3.57-11.12,6.66-.98,1.07-2.09,2.22-1.36,3.96.73,1.74,2.38,1.67,3.76,1.71,5.44.15,9.5-2.62,11.89-7.3,1.49-2.92,2.76-2.72,5.22-1.66,6.28,2.71,12.72,5.03,19.03,7.67,3.77,1.58,7.85,2.59,11.86,5.4-4.46,1.85-8.22,3.46-10.96,6.65-.93,1.08-2.29,2.2-1.56,3.88.76,1.77,2.48,1.96,4.16,1.99,4.04.07,8.08-1.37,9.63-4.85,3.28-7.42,7.55-4.48,12.08-2.23,3.07,1.53,6.26,2.85,9.18,4.63,3.24,1.97,6.97,3.36,9.43,6.94-4.36,1.7-8.67,2.96-11.62,6.58-1.08,1.33-3.04,2.54-1.77,4.66,1.08,1.82,3.1,1.64,4.88,1.47,6.2-.61,9.71-4.78,12.27-10.16,5.4,3.05,8.95,7.98,13.5,11.7,2.13,1.74,1.13,2.59-.89,3.24-3.78,1.21-7.18,3.13-9.86,6.17-.97,1.1-2.07,2.31-1.28,3.98.76,1.61,2.29,1.7,3.78,1.7,5.86-.01,9.91-3.11,12.32-8.27,1.04-2.22,1.86-2.27,3.51-1.03,1.05.78,2.14,1.52,3.27,2.16,2.51,1.44,3.18,2.7-.03,4.16-1.45.66-3.37,1.85-2.3,3.67.94,1.59,3.52,1.15,4.36-.02,3.9-5.45,7.43-1.76,11.12.06.82.41,1.62,1.68,2.85.27-1.87-1.03-3.8-1.89-5.49-3.1-.87-.62-3.24-.43-2.26-2.39.96-1.91,1.94,1.04,3.52.29-1.72-1.91-1.72-3.91-.81-6.24.98-2.5.92-5.28-.09-7.82-.84-2.11-1.53-4.85-4.22-4.94-2.81-.09-2.63,2.87-3.44,4.74-.25.57-.62,1.09-.95,1.66-6.58-5.46-6.6-5.56-3.59-12.63,1.71-4.03,1.87-8.1-.19-12.02-.74-1.41-1.65-3.18-3.53-3.01-1.87.17-2.43,2-2.98,3.57-1.09,3.07-.74,6.36-1,9.92-3.3-2.89-5.03-6.37-7.49-9.21-1.82-2.1-1.89-3.5-.12-5.89,3.61-4.87,3.58-11.44.51-15.38-1.98-2.55-3.7-3.07-5.35.49-1.31,2.84-1.07,5.84-1.58,8.77-.18.35-.36,1-.54,1-.67,0-.95-.55-1-1.2-3.21-4.79-6.36-9.62-9.65-14.36-1.5-2.16-1.34-3.66.7-5.43,1.9-1.66,2.87-4.01,2.39-6.73-.21-1.17-.46-2.44-1.82-2.64-1.07-.16-1.81.78-2.27,1.63-.98,1.79-1.8,3.67-3.08,6.36-2.36-4.12-4.15-7.63-6.3-10.89-1.56-2.37-2.31-3.91.28-6.4,2.79-2.69,3.58-6.74,2.89-10.67-.51-2.91-1.29-6.61-4.6-6.91-3.45-.32-3,3.58-3.83,5.92-.05.15-.06.33-.1.49-.25.93-.26,2.21-1.44,2.28-1.08.06-1.59-1.08-2.01-1.95-1.87-3.88-3.65-7.8-5.51-11.68-.85-1.76-.92-2.94,1.33-3.69,2.21-.74,4.01-2.27,4.84-4.63.43-1.24.96-2.72-.22-3.71-1.26-1.05-2.52-.11-3.49.76-1.58,1.42-3.02,2.98-4.58,4.54-1.64-1.45-1.92-3.5-2.76-5.24-1.57-3.26-2.37-5.79,1.46-8.72,4.22-3.23,4.9-9.74,3.01-14.18-1.22-2.88-2.8-2.95-4.78-.9-2.02,2.09-2.62,4.94-3.69,7.53-.2.36-.39,1.03-.61,1.04-.76.04-.87-.63-.92-1.25-1.64-4.87-5.12-9.63.77-14.38,1.98-1.6,2.51-5.51.21-7.15-2.99-2.14-2.93,2.35-4.59,3.45-.13.09-.22.25-.32.37.28.71.1,1.56-.59,1.47-.82-.11-.18-1-.22-1.55-.88-3.04-1.76-6.09-2.63-9.13-1.19.85.58,2.6-1.1,3.47Zm27.04,66.35c0,.15,0,.29,0,.47-.21.06-.42.11-.64.17,0-.15-.06-.38,0-.42.18-.12.42-.15.63-.22Z"/>
    <path class="cls-1" d="m1822.4,601.67c-2.52,6.99-2.75,14.16,1.06,20.68,1.96,3.35,1.88,6.27,1.05,9.89-3.15-1.87-5.02-4.84-8.13-6.07-1.38-.55-2.83-1.44-4.14-.4-1.53,1.2-1.06,3.05-.57,4.63,1.7,5.49,5.74,8.6,11.01,9.28,2.56.33,3.27,1.69,4.21,3.32-.16-4.03-.3-8.07-.5-12.1-.18-3.61-.03-6.68,2.58-9.97,4.62-5.82,4.07-14.99-.07-19.98-2.72-3.28-5.11-3.14-6.51.72Z"/>
    <path class="cls-1" d="m1826.99,643.24s0-.03,0-.05c0,0-.03,0-.05,0h.05c-.04-.07-.07-.14-.11-.2,0,.07,0,.14,0,.21.04.02.06.02.1.03Z"/>
    <path class="cls-1" d="m1828.29,651.66c-.1-2.04,1.06-2.53,2.86-2.94,3.6-.83,6.61-2.9,8.58-6.16,1.65-2.72,3.48-6.3.77-8.6-2.51-2.14-5.04.95-7.01,2.82-1.53,1.45-2.76,3.23-4.04,4.94-.66.89-1.01,2.13-2.46,1.53-.58,2.97-.19,5.78,1.3,8.41Z"/>
  </g>
  <path class="cls-1" d="m319.4,701.71c-3.72-4.56-5.18-9.75-5.65-15.54-.41-5.09-1.08-10.19-2.69-15.08-.22-12.43-5.18-21.85-16.56-27.19-.28-.28-.57-.57-.85-.85-.61-.74-1.08-1.73-1.85-2.19-12.39-7.39-24.13-16.02-37.65-21.27-7.02-2.72-14.24-4.71-21.89-2.46-10.4,3.05-15.91,10.67-14.14,20.01.71,3.76,2.32,7.19,4.8,10.14.12,1.22,1.73,1.91,1.12,3.81-2.32-2.25-4.01-4.52-5.1-7.35-1.18-3.08-2.56-6.09-3.97-9.07-.53-1.13-.95-2.66-2.62-2.54-1.53.11-2.13,1.46-2.65,2.64-4.79,10.83-5.99,22.67-9.06,33.99-.54,1.98.46,2.9,2.42,1.98,2.8-1.32,5.52-2.82,8.31-4.14,2.62-1.23,5.14-2.88,8.18-2.68-7.95,2.15-14.05,9.56-5.59,18.46,1.45,1.53,2.3,3.62,4.22,4.71,3.88,5.16,8.63,9.26,14.23,12.36,0,0,.05,0,.05,0,7.9,6.8,17.68,9.12,27.29,11.86-.36,1.36-2.34.36-2.55,2.28,2.13.34,4.28.74,6.45,1.03,8.77,1.19,17.35,3.92,26.45,1.41,8.88-2.45,17.48-6.15,26.93-6.46,3.77-.13,5.06-4.59,2.39-7.86Z"/>
  <path class="cls-1" d="m1226.65,476.69c2.04-3.9,3.02-7.97,2.98-12.39-.05-6.81-.81-13.5-2.08-20.19-1.71-9.09-.7-17.78,4.74-25.62,9.34-13.3,23.15-21.04,36.68-29.13,2.7-1.64,5.34-3.39,8.12-4.9,7.27-3.96,14.81-5.24,22.54-1.38,7.82,3.9,13.98,9.71,18.43,17.15,3.37,5.64,3.5,11.33-.98,16.65-1.44,1.71-2.66,3.54-1.23,6.62,1.39-2.07,2.68-3.44,3.34-5.07,1.87-4.6,3.48-9.3,5.19-13.97,1.73-4.79,3.67-5.25,6.98-1.35,9.01,10.63,13.03,22.93,12.25,36.83-.15,2.59-1.25,3.27-3.46,2.54-1.39-.46-2.66-1.28-3.98-1.93-.89-.01-1.77-.02-2.66-.04,1.15.89,2.31,1.79,3.47,2.68,5.2,5.75,4.39,13.07-2.19,19.53,0,0-.37-.08-.37-.08l.36.1c-9.05,10.9-20.64,17.5-34.52,20.26-6.21,1.16-12.42,2.32-18.62,3.47-13.84,5.64-27.21,2.59-40.49-2.17-3.6-.56-7.16-1.24-10.87-1.19-4.43.07-5.74-2.4-3.64-6.44Zm96.29-40.41c3.42,1.36,6.84,2.71,10.25,4.07-2.45-3.37-6.29-3.83-10.25-4.07Z"/>
  <path class="cls-1" d="m661.11,472.76c-2.93-.71-5.16-2.57-7.5-4.29-1.36-1.5-2.26-3.27-2.97-5.16-.08,0-.15,0-.23,0,.07,0,.15,0,.23,0-.11-.54-.21-1.08-.34-1.61-.89-3.61-1.67-7.27-3.89-10.36,0,0,.02-.01.02-.01-.32-.97-.86-1.79-1.57-2.5-.1-.13-.19-.26-.29-.4-1.47-2.14-3.22-3.97-5.52-5.17-2.05-1.45-4.27-2.52-6.73-3.02-1.7-.86-3.54-1.25-5.39-1.43-7.55-.73-15.11-.64-22.63.19-5.76.64-11.45,1.75-17.01,3.48-2.3.39-4.56.94-7.07,1.92,1.37.56,2.46.18,3.47.79-1.41,1.12-1.24,2.5-.8,3.9.49,1.55,1.38,2.86,2.44,4.07,2.2,2.52,3.9,5.35,5.29,8.98-3.2-2.01-5.66-4.05-7.63-6.67-1.3-1.73-3.01-2.83-5.09-3.31-.71-.16-1.26-.2-1.47.78-1.1,5.13-2.29,10.29-1.34,15.56.59,3.28,2.38,6.18,3.66,9.24,1.14,2.72,1.87,2.73,3.7.49,1.81-2.22,3.23-4.79,5.63-6.47.13-.11.27-.22.4-.33.09-.24.31-.41.48-.23.21.21-.08.35-.23.47-.09.13-.19.25-.28.38-1.76,2.79-3.55,5.55-5.25,8.37-.8,1.32-.98,2.67.53,3.7.76,1.11,2.03,1.24,3.13,1.63,4.38,1.56,8.67,3.41,13.29,4.17.34.05.69.1,1.03.15,6.33,1.26,12.66,1.18,18.98,0,.12-.02.24-.04.37-.06.21-.12.43-.24.64-.34-.22.1-.43.22-.64.34,5.81-1,11.63-1.93,17.43-3.03,2.19-.41,4.22-1.38,6.01-2.81,2.9-1.51,6.13-2.34,8.78-4.34,1.15-.87,2.36-1.46,3.76-1.69,3.52.12,4.25-.29,5.28-3.04.02-.05.09-.08.13-.12,1.23-1.29.07-2-.8-2.21Zm-39.3,16.6c.66-.26,1.33-.46,2.03-.6-.69.14-1.37.34-2.03.6Z"/>
  <path class="cls-1" d="m521.11,1000c-.54-5.14-1.8-10.03-4.86-14.29-5.66-9.5-12.84-17.67-22.93-21.99-24.45-10.47-48.44-8.47-71.73,4.23-2.61,1.42-4.56,2.63-1.44,5.47.37.34,1.01.97.32,1.43-.31.21-1.06-.27-1.61-.44-1.12-1.03-2.27-2.01-3.77-2.42,0,0-.03.02-.03.02-5.91-5.5-13.24-8.34-20.51-11.26-1.65-.66-3.25-.3-4.45,1.15-2.87,3.48-5.53,7.08-6.21,11.77,0,0-.15.17-.15.17l.09.21c-1.4,3.17-1.22,6.5-.9,9.84.57,5.78,2.73,7.68,8.27,6.94,6.11-.82,11.87-3.28,18.12-3.85,2.91-.27,4.91-.23,6.75,1.97.45.21,1.26.34.77,1.02-.36.5-1,.08-1.41-.33-4.67-.26-6.45,1.35-5.68,6.01,1.47,8.97,4.95,17.11,10.71,24.14,6.5,8.27,15.49,10.75,25.29,11.36,4.68,1,9.34,2.21,14.19,1.74,3.08-.3,5.81.43,8.09,2.6,2.71,2.57,5.96,3.7,9.58,3.81,14.08.42,26.63-4.09,37.97-12.41-.14.03-.28.04-.42.05-.29.02-.59,0-.9-.04.31.04.61.05.9.04.15,0,.29-.02.42-.05.24-.14.48-.29.72-.43,4.54-1.62,5.55-3.05,5.59-7.94.05-6.19-.15-12.36-.79-18.52Z"/>
  <path class="cls-1" d="m1520.44,685.22c-11.28-1.3-22.18-4.24-32.88-8.06-4.77-1.7-9.52-2.53-14.07.65-1.32.92-1.77.04-2.36-.93-1.14-1.9-1.14-4.34-2.73-6.02-.05-1.08.44-1.85,1.38-2.29,3-1.39,4.79-3.95,6.54-6.66,1.41-2.18,1.69-4.83,3.09-6.96,2.44-3.71,1.26-6.78-2.82-8.24-4.48-1.6-7.87-.16-10.85,3.17-1.93,1.2-3.74,2.55-5.1,4.44-1.4.51-1.34,2.05-2.05,3.06-1.19,1.69-2.46,3.52-4.65,3.25-2.22-.28-4.36-.32-6.51.15-1.29.28-1.97.06-1.86-1.52.28-3.88-1.67-6.92-3.73-9.89-1.13-2.6-2.86-4.71-5.02-6.48-2.05-3.22-4.36-6.23-6.97-9-.84-.89-1.81-2.08-3.21-1.33-1.29.69-1.98,2.07-1.71,3.52.8,4.29,1.59,8.63,5.3,11.55,0,0,.02.04.02.04,3.54,4.28,1.87,10.32,4.8,14.82.09.15-.22.57-.34.86,0,0-.06-.15-.06-.15-2.47.33-4.69,1.31-6.76,2.68,0-.01,0-.02,0-.03-.52.03-.99.14-1.29.62-2.44.72-4.56,2.07-6.66,3.48-3.21,1.41-6.01,3.48-8.56,5.87-2,1.88-4.69,3.58-5.6,5.94-1.24,3.23-2.79,6.15-4.61,9.01-.27.42-.36,1.03-.35,1.55.03,2.65-.87,5.04-1.91,7.4-1.5,3.43-1.17,7.24-1.36,10.75-.27,4.92.76,10.02,2.28,14.84.57,1.8.21,3.03-.98,4.33-2.93,3.21-5.78,6.48-8.66,9.73-3.82,2.82-6.29,6.74-8.17,11-.84,1.91-2.43,4.73-.37,6.17,2.07,1.45,4.49-.3,6.28-2.08,0,0,.05-.03.05-.03,1.11-.34,1.72-1.26,2.36-2.15,6.97-2.63,10.81-8.57,14.39-15.09,1.77,3.05.41,7.08,3.92,8.21,2.54.81,5.2,3.35,8.05.52.21-.03.42-.03.62-.08,5.66-1.58,6.87-.43,6.26,5.32-.41,3.81-1.68,7.75.54,11.47-.01,0-.02,0-.03,0,2.96,4.26,10.81,5.59,14.86,2.58,1.23-.91,1.86-2,1.51-3.53-1.28-5.63-1.08-11.42-1.86-17.11,1.94-1.43,4.35-1.75,6.45-2.79,5.44-1.27,10.92-3.64,14.83-7.04,5.67-4.94,10.61-11.11,14.26-18.07,4.48-8.55,3.3-17.58,2.43-26.61-.19-2-1.4-4.9,2.74-3.76.79.22,1.64-.22,2.22-.93-.1,0-.21,0-.32,0-.22,0-.44.01-.66.02.22,0,.45-.02.66-.02.11,0,.22,0,.32,0,.43-.05.85-.1,1.28-.15.44-.52.91-.86,1.41-1.06.25-.1.5-.18.76-.23-.26.05-.51.12-.76.23-.5.21-.97.54-1.41,1.06,1.02.57,2.05.06,3.08.06,5.79-.05,11.59-1.21,17.37.2,6.8,1.65,13.62,3.25,20.44,4.85,1.95.46,3.9,1.03,6.16.55-2.66-3.3-5.58-5.18-9.43-5.63Z"/>
  <g>
    <path class="cls-1" d="m8.46,1064.91c.76-5.27-.66-9.88-4.57-13.54-1.03-.96-2.77-1.63-.83-3.33,2.99-2.62,5.44-5.95,9.31-7.78.97,2.96.62,6,2.2,8.39,1.72,2.6,4,6.33,6.86,5.36,3.36-1.14,1.98-5.38,1.52-8.42-.3-1.98-.91-4.13-2.46-5.32-4.51-3.46-2.9-5.7,1.12-7.73.23-.12.36-.45.56-.72-2.13-.16-3.1,2.34-5.42,2.29.31-5.54-.81-10.58-5.4-14.08-2.38-1.81-4.69-2.23-5.22,1.66-.3,2.22-.71,2.2-2.62,1.37-3.26-1.41-6.58-3.49-10.39-1.25-.64.38-2.05,1-2.55-.3-1.43-3.71-5.05-3.69-7.85-5.07-.96.28-1.83.03-2.66-.48h0c.88.15,1.76.3,2.64.45,6.9-1.35,13.5-6.11,20.92-1.77.87.51,2.24.12,3.38.18.73.04,1.25-.01,1.99.73,4.69,4.67,10.68,5.2,16.82,4.96,1.05-.04,1.83-.55,2.07-1.72.26-1.26-.65-1.79-1.39-2.37-1.86-1.45-4.35-1.53-6.24-2.62-2.7-1.55-6.19.75-8.21-1.83-4.05-5.18-9.47-5.65-15-4.54-3.49.7-6.73.24-10.63.41,1.2-1.18,1.95-1.82,2.6-2.56,3.24-3.64,6.45-6.54,12.08-5.06,3.58.94,7.38-.69,10.93-1.98,1.24-.45,2.62-.91,2.5-2.6-.13-1.74-1.78-1.76-2.92-2.17-2.91-1.04-5.98-.26-9.56-.26,3.56-4.08,6.71-7.62,9.76-11.24,1.17-1.39,2.28-1.38,3.84-.77,4.24,1.67,8.62,1.54,12.98.49,1.37-.33,3.35-.33,3.46-2.15.12-2.04-1.91-2.42-3.39-2.96-3.74-1.38-7.58-.69-12.13-.08,2.49-4.07,4.82-7.43,6.67-11.04,1.17-2.3,2.16-2.19,4.1-1.1,3.66,2.04,7.74,2.48,11.86,2.23,1.71-.1,4.21.36,4.62-1.76.44-2.33-2.05-3.06-3.74-3.97-4.06-2.17-8.49-1.27-13.27-1.28,1.63-3.36,3.17-6.25,4.44-9.26,1.02-2.43,2.22-2.24,4.08-.97,3.78,2.58,8.11,3.38,12.55,3.5,1.39.04,3.28.47,3.89-1.23.69-1.95-1.3-2.69-2.35-3.9-4.09-4.72-11.15-1.01-15.18-5.72-1.98,2.66-2.99-.1-4.26-.87-3.59-2.18-7.41-3.44-11.59-3.4-1.57.01-3.63-.45-4.35,1.38-.6,1.53.97,2.71,1.93,3.78,4.07,4.52,9.43,4.69,15.54,4.23-1.64,3.39-3.08,6.31-4.47,9.25-1,2.12-1.95,2.97-4.33,1.28-3.44-2.44-7.55-2.99-11.71-2.58-1.58.16-3.76-.05-4.27,1.72-.57,1.99,1.46,3.18,2.78,4.26,3.88,3.18,8.56,2.22,13.91,2.12-2.57,4.11-4.88,7.64-7,11.28-1.24,2.12-2.29,2.6-4.61,1.18-4.14-2.55-8.79-1.98-13.32-1.07-1.24.25-2.78.5-2.94,2.16-.14,1.48,1.05,2.32,2.11,3.1,2.55,1.87,5.46,1.89,8.43,1.79,1.53-.05,3.05-1.31,4.92.05-3.79,4.02-7.48,7.97-11.23,11.87-.98,1.02-1.83,2.28-3.62.78-4.17-3.48-8.88-2.49-13.48-1.11-1.73.52-4.5.67-4.12,3.26.32,2.22,2.63,3.06,4.82,3.6,3.44.85,6.53-1.22,11.4-1.27-5.22,4.4-9.41,7.97-13.64,11.5-1.12.94-2.18,1.09-3.42-.09-2.59-2.46-5.84-2.04-8.81-1.27-3.28.85-7.75.81-8.41,5.26-.41,2.75,5.46,4.04,10.7,1.97,3.03-1.19,5.81-1.62,8.77-.23h0c-9.83.66-15.13,8.68-22.22,13.79,4.03-2.65,7.97-5.45,11.91-8.24,1.02-.72,2.6-2.45,3.26-1.39,2.34,3.78,6.52,3.44,11.06,5.32-7.83,2.7-14.48,4.99-21.12,7.28,7.43-1.41,14.47-3.88,21.54-6.23,1.46-.49,2.93-1.65,4.64-.57,4.57,2.9,9.59,2.75,14.67,2.25,1.56-.15,8.6,8.5,8.1,9.95-.1.29-.38.53-.62.74-2.72,2.41-5.44,4.82-8.73,7.72-.48-5.91-1.86-10.48-6.06-13.47-3.04-2.17-5.01-1.2-5.14,2.56-.16,4.81.83,9.62,4.35,12.83,3.08,2.8,1.97,4.12-.11,6.57-3.33,3.92-6.18,8.27-9.23,12.44,4.28-3.46,6.6-8.49,10.63-12.09.31-.24.62-.49.92-.73.13.38.25.76.38,1.14.14,4.69,2.43,8.12,5.96,10.91,2.58,2.04,3.92.94,4.31-1.82Z"/>
    <path class="cls-1" d="m146.51,1012.82c.38-3.17-.6-5.9-2.76-8.19-.96-1.02-1.98-2.11.03-2.98,3.45-1.5,6.34-4.11,10.88-2.69,5.62,1.76,10.47-1.06,14.47-5.14,1.17-1.19,2.03-2.79,1.21-4.52-.69-1.46-2.19-1.92-3.7-2.02-6.35-.39-11.59,1.93-15.06,7.39-2.33,3.66-5.7,4.85-9.77,6.16.14-4.82-.82-8.78-3.94-11.86-.91-.9-1.92-1.97-3.41-1.34-1.38.58-1.79,1.9-1.9,3.24-.29,3.82.52,7.24,3.51,9.91.89.8,3.15,2.03.48,3.16-2.85,1.21-5.42,3.44-8.94,3.36,0-4.47-.38-8.59-3.64-11.71-1.05-1.01-2.05-2.42-3.74-1.64-1.52.7-1.67,2.27-1.82,3.8-.32,3.34.4,6.38,2.86,8.64,2.73,2.51,1.65,3.68-1.18,4.57-1.08.34-2.15.75-3.2,1.2-2.51,1.08-3.83.91-3.55-2.52.31-3.74-.72-7.33-3.24-10.17-1.24-1.39-2.48-3.51-4.8-2.7-2.28.8-2.06,3.1-2.25,5.08-.5,5.25,2.82,8.55,6.26,12.08-1.51.61-2.75,1.11-3.95,1.59,3.93-.58,5.47,1.37,5.13,5.38-.04.46.16,1,.39,1.42,1.51,2.74,2.42,7.78,6.14,6.15,3.44-1.51,2.09-6.18.65-9.43-2.45-5.49-2.55-5.46,3.17-7.22,1.07-.33,2.17-.55,3.5-.89.23,3.64.9,7.04,3.23,9.82.74.88,1.46,1.91,2.79,1.67,1.66-.31,1.7-1.8,1.94-3.08.78-4.19-1.77-7.13-4.31-10.21,2.7-1.18,5.02-1.95,7.1-3.15,2.45-1.41,3.76-1.51,3.85,1.93.06,2.37,1.13,4.52,2.56,6.36.77.99,1.69,2.24,3.21,1.8,1.54-.44,1.63-1.93,1.78-3.24Z"/>
    <path class="cls-1" d="m42.57,926.01c2.12-3.65,3.77-3.97,6.25-.67,3.19,4.25,8.1,5.27,13.06,5.7,1.23.11,2.85.47,3.46-1.03.57-1.4-.55-2.44-1.52-3.37-3.43-3.26-7.54-5.13-12.03-6.3-1.01-.26-3.01-.13-2.73-1.36.6-2.62,2.98-4.17,4.88-5.9,1.93-1.75,2.49.53,3.23,1.51,3.23,4.25,7.7,5.95,12.65,6.72,1.13.18,2.49.38,3.02-.9.41-.99-.58-1.8-1.19-2.57-2.88-3.67-6.87-5.54-11.09-6.89-2.76-.88-2.84-1.78-.47-3.3.96-.62,1.87-1.34,2.7-2.13,2.24-2.15,3.8-2.21,5.65.78,2.44,3.95,6.47,5.97,10.82,7.14,1.51.41,3.55,1.6,4.54.03,1.22-1.92-.97-3.21-2.1-4.48-3.19-3.55-7.69-5.11-11.82-7.21,3.64-4.66,8.38-3.93,12.8-4.32,4.35.19,7.54-1.69,9.38-5.72.84-1.84.37-3.73-1.06-5.03-3.19-2.88-6.78-2.63-10.43-.94-2.12.64-4.02,1.52-4.48,4.07,0,0-.03-.03-.03-.03-1.53,1.48-.95,3.39-1.02,5.17-.16,4.14-4.32,3.31-6.34,5.21-1.68,1.58-2.36-.82-3.2-1.83-2.84-3.41-6.38-5.63-10.6-6.7-.91-.23-2.14-.62-2.75.3-.73,1.1-.05,2.21.78,3.11,2.49,2.69,5.38,4.8,8.74,6.23.88.38,2.42.82,1.99,1.75-1.22,2.63-4.14,3.48-6.23,5.25-1.59,1.35-2.19-.46-2.96-1.38-2.76-3.31-6.26-5.22-10.46-5.8-1.08-.15-2.37-.67-2.93.86-.4,1.09.33,1.93.99,2.64,2.51,2.71,5.63,4.47,9.03,5.76.86.33,2.58.75,1.97,1.61-1.49,2.11-3.38,4.06-5.45,5.59-1.73,1.28-2.41-1.06-3.31-1.94-3.09-3.04-6.82-4.43-10.95-4.93-1.12-.14-2.43-.28-3.1.88-.89,1.53.42,2.51,1.28,3.38,2.47,2.51,5.43,4.67,8.79,5.09,4.4.56,3.99,2.56,2.29,5.92Z"/>
    <path class="cls-1" d="m70.67,1019.46s0,.04,0,.04c.09-.04.19-.08.28-.12-.09,0-.17.01-.26.03,0,0,0,.02,0,.04Z"/>
    <path class="cls-1" d="m86.22,1031.93c.39-4.9-1.81-8.88-4.8-12.6,1.56-1.3,3.6.02,5.09-2.32-5.6,2.15-5.97-.24-5.47-4.74.43-3.89-1.62-7.35-4.76-9.89-1.16-.94-2.31-2.06-3.91-1.24-1.53.78-1.58,2.38-1.63,3.89-.13,4.7,1.93,8.64,4.47,12.59-1.55.64-2.91,1.21-4.27,1.77,4.07-.43,5.75,1.03,5.05,5.73-.59,3.92,2.06,6.82,4.89,9.24,1.08.93,2.2,2.4,3.79,1.56,1.42-.76,1.43-2.52,1.55-3.99Z"/>
    <path class="cls-1" d="m35.31,1011.68c-1.59-1.82-3.27-4.46-5.95-3.1-2.34,1.19-.96,4.2-1.48,6.3-1.19,4.88,7.33,7.21,2.87,12.62-.02.03.19.37.27.36,4.21-.68,1.72,2.59,1.75,3.67.12,4.83,2.6,8.09,6.03,10.86,2.29,1.85,3.62.75,4.07-1.76.83-4.65-.05-8.88-3.44-12.34-.66-.62-1.32-1.23-1.98-1.85.07-.41.14-.83.22-1.24,5.41-1.18,10.95-1.79,16.21-3.67-5.64-.19-10.98,1.1-16.11,3.42.26-4.63.96-9.37-2.45-13.28Z"/>
    <path class="cls-1" d="m97.42,1012.59c.77-4.6-1.76-8.29-4.87-11.39-1.87-1.85-3.37-1.59-4.19,1.22-1.53,5.23-.24,9.77,3.1,13.7-1.1,1.51-3.06.18-4.42,2.51,5.95-2.54,6.42.84,6.19,4.96,0,.16,0,.34.06.49,1.11,3.1,1.99,6.39,5.21,8.03.98.5,1.98.14,2.44-.93,1.58-3.67,1.29-7.53-1.28-10.26-2.58-2.74-1.12-3.51.88-4.59-2.47.1-3.65-.49-3.1-3.74Z"/>
    <path class="cls-1" d="m100.52,1016.34c.06,0,.12,0,.18,0,0,0,.01-.1.01-.1-.07.04-.13.07-.2.11Z"/>
    <path class="cls-1" d="m37.18,935.34c5.06,3.27,10.56,6.38,17.07,5.55,1.06-.14,2.55.37,2.93-1.09.32-1.24-.78-2.12-1.64-2.85-3.2-2.72-6.89-4.57-11.03-4.87-3.61-.26-4.65-1.49-2.75-5.17-1.93,3.45-3.68,4.62-6.38,1.38-1.39-1.67-3.56-2.43-5.63-2.79-2.58-.45-6.37-2.26-7.45.77-1.04,2.93,2.98,4.05,5.15,5.63,2.89,2.12,6.56,1.4,9.72,3.44Z"/>
    <path class="cls-1" d="m118.33,949.84c3.01,3.37,9.84,4.04,13.44,1.41,3.05-2.22,3.46-5.61.97-8.01-2.99-2.88-9.44-3.35-13.08-.71-1.6,1.97-4.21,4.07-1.32,7.31Z"/>
    <path class="cls-1" d="m70.56,1019.44s.07.04.1.07c0,0,0-.02,0-.04s0-.04,0-.04c-.04,0-.08.02-.12.02Z"/>
    <path class="cls-1" d="m64.76,1019.39c-1.68-.23-3.65,2.04-5.05-.54,2.06-4.61.89-8.74-2.04-12.45-3.87-4.88-5.98-4.5-8.11,1.53-3.3-3.55-7.89-4.15-12.69-5.7,3.47-2.76,6.57-4.86,9.21-7.45,1.82-1.79,2.8-1.53,4.29.19,2.8,3.24,6.58,4.82,10.6,5.78,1.36.33,3.1,1.14,4.01-.5.87-1.57-.58-2.7-1.47-3.87-2.88-3.78-7.49-4.25-11.82-6.13,2.22-2.11,4.25-3.78,5.98-5.73,2.18-2.47,3.74-2.32,5.74.33,2.23,2.95,5.46,4.68,8.88,5.95,1.5.55,3.33,1.74,4.42,0,.95-1.51-.35-3.14-1.34-4.49-2.23-3.05-5.33-4.8-8.73-6.14-.99-.39-3.01-.8-2.34-1.87,1.27-2.03,3.24-3.7,5.18-5.15,1.04-.78,1.52.71,2.01,1.51,2.49,4.07,6.51,5.89,10.65,7.5,1.04.41,2.31,1.17,3.16.11.99-1.23.05-2.56-.62-3.67-2.21-3.65-5.33-6.29-9.14-8-2.19-.98-2.45-1.94-.41-3.35,1.08-.75,2.19-1.47,3.17-2.33,2.13-1.87,3.45-1.89,4.33,1.27,1.15,4.12,4.37,6.58,7.86,8.46,1.71.92,3.95,3.2,5.65,1.07,1.51-1.88-.67-4.02-1.72-5.8-2.33-3.95-6.27-6.13-9.9-8.63,1.1-1.94,3.15-1.89,4.59-2.88,2.72-1.87,4.47-1.81,5.38,1.96,1.06,4.37,4.59,6.68,8.09,8.87.98.61,2.14,1.29,3.16.44,1.31-1.09.49-2.47-.1-3.61-1.7-3.26-3.82-6.18-6.78-8.41-.7-.52-2.22-1.25-1.44-2.13,1.8-2.02,4.54-2.34,7.05-2.88,2.35-.5,2.01,1.67,2.37,2.93,1.43,4.95,4.76,8.23,8.92,10.8.83.51,1.88,1.01,2.74.29.89-.75.34-1.85.07-2.77-1.16-3.98-3.69-7.08-6.68-9.66-2.58-2.23-1.53-3.2,1.16-4.28-3.71,1.11-5.59.32-6.57-3.56-.81-3.18-3.17-5.81-6.01-7.64-1.02-.66-2.28-1.98-3.47-.81-1.06,1.05-.16,2.53.34,3.7.99,2.3,2.45,4.28,4.04,6.21.82.99,3.14,2.2,1.76,3.39-1.76,1.51-4.37,2.05-6.68,2.79-1.93.61-1.93-1.18-2.36-2.35-1.31-3.59-3.68-6.25-6.95-8.06-.95-.53-2.07-1.42-3.13-.46-1.08.97-.34,2.21.1,3.21,1.61,3.65,4.39,6.4,7.82,9.21-2.01.99-3.55,1.51-4.83,2.43-2.43,1.74-3.89,2.29-5.1-1.51-1.2-3.75-4.48-6.03-7.96-7.69-.97-.47-2.2-1.2-3.2-.23-1.19,1.16-.4,2.48.14,3.66,1.87,4.05,5.29,6.63,8.93,9.37-2.89,2.39-5.09,5.23-8.44,6.96-1.81-5.11-5.18-8.25-9.98-9.79-1.11-.35-2.3-.56-3.05.69-.6,1-.05,1.92.44,2.78,1.42,2.48,3.08,4.99,5.64,6.07,5,2.1,4.14,4.19.85,7.28-2.26,2.13-3.45,2.27-5.01-.65-1.34-2.53-3.73-4.21-6.26-5.41-2.26-1.07-5.44-3.56-7-1.19-1.61,2.45.75,5.54,2.88,7.76,2.44,2.54,5.98,3.13,9.1,5.17-1.71,1.74-3.24,3.19-4.65,4.76-2.6,2.92-4.84,3.63-7.53-.14-1.64-2.3-4.5-3.21-7.18-4.01-1.82-.55-4.25-1.94-5.36,0-1.24,2.16.64,4.35,2.18,6.06,2.5,2.79,6.27,3.13,9.79,4.72-2.95,3.41-6.32,5.63-9.62,7.96-1.53,1.08-2.78,1.21-4.21-.43-2.75-3.14-6.54-4.26-10.46-4.84-1.53-.22-3.65-1.1-4.46.74-.91,2.06.76,3.75,2.18,5.1,2.58,2.48,6.2,2.45,9.86,3.49-1.71,1.4-2.92,2.4-4.13,3.39,3.98-3.29,7.65-3.51,11.48.3.86.85,2.35,1.08,3.6,1.47,9.26,2.86,9.43,2.97,15.1,10.44-.5.39-.99.78-1.49,1.18.42.58.91.38,1.42.1.67,1.97-.88,3.98.1,5.95-.35,4.17,2.11,6.81,4.92,9.17,3.3,2.77,3.93,2.41,4.77-2.46,0,0,0,0,0,0,.98-4.97-1.4-8.85-4.34-12.85,3.38-.7,6.44-1.33,9.49-1.97-1.92-1.31-3.89.22-5.8-.05Z"/>
    <path class="cls-1" d="m53.86,1021.54c.1,0,.19,0,.29,0,0,0,.01-.11.01-.11-.1.04-.2.07-.31.1Z"/>
    <path class="cls-1" d="m104.97,1015.61s.05.01.08.02c0,0,0-.02,0-.03v.03c.11-.04.22-.09.33-.13-.11.02-.21.03-.33.05-.03.02-.06.04-.08.07Z"/>
    <path class="cls-1" d="m100.7,1016.33s.06-.04.09-.06c-.03-.02-.05-.03-.08-.04,0,0-.01.1-.01.1Z"/>
    <path class="cls-1" d="m100.8,1016.27c1.59,1.06,2.91.39,4.18-.67-1.51-.51-2.88-.18-4.18.67Z"/>
    <path class="cls-1" d="m54.16,1021.54s.04-.03.06-.05c-.02-.02-.03-.04-.05-.06,0,0-.01.11-.01.11Z"/>
  </g>
  <g>
    <path class="cls-1" d="m1469.7,90.03c-.17-3.08-1.44-7.11-3.95-9.09-8.47-6.66-18.48-7.94-28.61-8.93h0c-2.73-.7-5.51-1.25-8.18-2.13-6.45-2.13-13.13-1.71-19.73-2.12-3.09-3.75-6.84-4.34-11.26-2.74-3.03,1.09-6.2,1.79-9.31,2.69-1.77.51-3.51,1.11-4.65,2.75h-.01s0,0,0,.01c0,0,0,0,0,0,0,0,0,0,0-.01-1.29.74-2.4,1.67-3,3.12h0c-.21.04-.31.17-.33.38,0,0-.09.09-.09.08-.18.28-.37.56-.56.84-2.3,2.61-2.85,6.09-4.36,9.09-2.5,4.95-3.76,5.54-9.02,3.75-.76-.26-1.54-.49-2.27-.83-7.41-3.47-9.77-1.09-12.88,6.27-3.21,7.61-1.23,14.96,1.16,22.3.72,2.2,2.97,4.61,2.04,6.42-1.03,1.99-4.31,1.64-6.56,2.46-.43.02-.86.04-1.29.06-3.8-.48-7.54-1.22-11.14-2.58-1.11-.59-2.19-1.24-3.33-1.76-3.06-1.4-3.8-.92-4.03,2.52-.15,2.34.13,4.64.59,6.92,1.03,6.75,1.75,13.5,1.21,20.37-.39,4.92,2.93,9.92,7.55,12.01,4.62,2.09,8.23.22,11.44-3.13,0,0,0,0,0,0,2.79-1.28,5.07-3.25,6.73-5.8,1.75-2.69,3.63-2.37,5.82-.83,1.57,1.11,2.38,2.82,3.37,4.4,1.11,1.75,1.87,3.8,3.95,4.7.98.96,2.28,1.41,3.49,1.26,8.94-1.1,17.33-3.52,23.74-10.61,1.09-1.2,1.45-4.39,4.41-2.16.49.37,1.71-.67,1.99-1.63.55-1.89,1.17-3.97,3.54-3.37,1.77.45,3.31,1.75,5.06.11.11.2.24.39.31.6,1,2.93,3.48,3.04,5.91,3.29,4.81.5,8.46-2.12,11.04-5.52,6.26-8.25,13.49-15.3,21.64-21.54,3.89-2.98,6.16-7.58,9.19-11.42,4.71-5.96,10.88-11.17,10.38-20.17Zm-60.49-22.23s0,0,0,0c0,0,0,0,0,0h0Zm-10.78-.76c-.2.13-.39.27-.59.39.2-.12.4-.25.59-.39Zm-14.45,3.43h0,0Zm.04-.01c3.52-1.28,7.4-.84,11.02-1.86-3.62,1.02-7.5.58-11.02,1.86Zm12.04-2.19c.21-.08.41-.17.62-.26-.2.09-.41.18-.62.26Zm-.91.3c.23-.07.47-.15.7-.23-.23.08-.46.16-.7.23Zm2.35-.96c-.18.1-.36.2-.54.28.18-.09.36-.19.54-.28Zm8.58-.27c.08.03.16.07.24.1-.08-.03-.16-.07-.24-.1Zm-.67-.32c.14.08.29.15.43.22-.14-.06-.29-.14-.43-.22Zm2.83.77s-.07,0-.11,0c.04,0,.07,0,.11,0Zm-.48-.04s-.1-.01-.15-.02c.05,0,.1.02.15.02Zm-.48-.07c-.06,0-.11-.02-.17-.04.06.01.11.03.17.04Zm-.48-.1c-.07-.02-.14-.04-.2-.06.07.02.14.04.2.06Zm1.85.22s.04,0,.06,0c-.02,0-.04,0-.06,0Zm.8.9s0,0,0,0c0,0,0,0,0,0Zm.17.21s.02.01.02.02c0,0-.02-.01-.02-.02Zm.21.16s.04.02.06.03c-.02-.01-.04-.02-.06-.03Zm.25.11s.09.02.13.03c-.04,0-.09-.01-.13-.03Zm.3.06c.11.01.22.01.34,0-.12,0-.23,0-.34,0Zm.34,0h0c.9-.05,1.8-.08,2.69-.07-.89,0-1.79.01-2.69.07Zm21.06,2.89c-3.47-.77-6.93-1.6-10.43-2.19,3.5.59,6.96,1.42,10.43,2.19.68.15,1.36.27,2.03.33-.67-.05-1.34-.18-2.03-.33Z"/>
    <polygon class="cls-1" points="1380.51 73.9 1380.57 74.03 1380.66 73.95 1380.51 73.9"/>
  </g>
  <path class="cls-1" d="m1833.3,137.59c-.16-.29-.32-.57-.48-.86.02,0,.03,0,.05,0-.31-1.46-1.4-2.35-2.48-3.09-8.68-5.94-17.52-11.58-27.61-14.78,0,0,0,.01,0,.02-1.47-1.17-3.27-1.59-5-2.05-6.95-1.86-12.8-5.34-16.93-11.5-1.53-3.41-.99-6.83-.06-10.25,1.37-2.16,2-4.59,2.57-7.05,0,0,.11-.16.11-.16,2.09-4.6,4.16-9.21,3.83-14.48-.44-7.04-6.64-11.03-13.03-8.36-3.99,1.67-6.92,4.46-8.69,8.56-2.53,5.87-5.08,11.77-9.36,16.61-3.16,3.58-6.67,5.84-11.86,4.29-4.89-1.46-9.9-2.49-14.76-4.13-7.15-2.42-14.4-4.56-21.91-5.53-2.48-.62-4.96-.56-7.43.04-3.31.3-6.01,1.8-8.05,4.44-4.91,6.39-2.32,13.89,5.37,15.36,2.97.57,6.01.94,9.02.98,3.45.05,6.73.49,9.86,2,4.38,4.12,4.9,7.43,2,12.82-1.66,3.09-3.98,5.63-6.61,7.88-5.04,4.3-10.11,8.57-15.11,12.92-3.05,2.65-6.46,4.95-8.79,8.35-2.44,3.57-4.11,7.51-2.34,11.87,1.79,4.42,6.01,5.04,9.96,5.81,1.84.36,3.62-.29,5.36-.85,6.07-1.94,11.63-5.03,17.22-8.06,4.85-2.63,9.74-5.12,15.22-6.07,7.4-1.28,13.58,2.19,16.36,9.24.77,1.96,1.36,3.99,2.03,5.98.37,2.82.86,5.63,1.1,8.46.6,7.03.91,14.09,1.68,21.1.55,4.99,3.57,8.37,8.2,9.92,3.86,1.29,7.4.54,10.16-2.78-.36-.05-.71-.09-1.05-.11.34.02.69.06,1.05.11-.39-1.65.14-2.41,1.5-2.4-1.36-.02-1.89.75-1.5,2.4,1.07-.44,1.82-1.19,2.13-2.34,0,0,0,0-.01,0,1.85-1.58,2.07-3.74,2.13-6.01.21-8.67.36-17.35.71-26.02.16-3.95.84-7.85.12-11.85-.87-4.84.7-7.18,5.13-9.31,4.95-2.38,9.69-1.2,14.54.21,7.61,2.21,15.35,3.78,23.29,2.89,5.32-.59,10.3-2.16,12.27-8.19.82-2.01,1.19-4.02.05-6.04Z"/>
  <path class="cls-1" d="m1627.34,468.55c.64-2.15,2.4-1.21,3.91-.49,1.09.52,2.23-.01,3.29-.3,4.45-1.19,8.88-2.44,13.31-3.67,0,0,0,.01,0,.01,2.83-1.29,1.65-5.07,4.68-6.25.04-.23.18-.38.43-.44.37-.48.74-.96,1.11-1.43,0,0-.01,0-.02,0,.47-.93.68-2.13,1.46-2.72,1.09-.84.08-5.76,3.95-1.91.19.19,1.32-.08,1.69-.42,2.49-2.31,5.85-4.21,5.25-8.16-.11-.72.07-1.85.81-1.4,2.27,1.39,3.98-.9,6.01-.43,0,0,.18.09.21.11.18-.36.54-.51,1.01-.49,0,0-.07-.09-.07-.09.76-1,1.92-1.76,1.86-3.21-.03-.74-.2-1.78.85-2.06,1.34-.36,1.41,1,2.08,1.57.28,0,.56,0,.84,0,2.68-1.6,3.16.95,4.71,1.75-.82,1.28-3.37.26-2.97,2.3.27,1.39,1.29,1.9,2.83,2.3,2.73.71,4.03,4.09,7.57,3.53.04,0,.23.38.23.58.03,3.05,2.39,1.86,3.81,1.51,1.58-.39,3.04-2.41,4.67-1.01,1.73,1.49-1.58,2.55-1.11,4.16.15.09.18.21.09.35,2.56.95,3.48,3.73,6.27,4.53.84.24.23,1.39-.28,2.05,1.25,3.53,4.11,6.56,3.74,10.63-.11,1.27.29,2.77,1.86,3.56.65.33.78.78.26,1.38-2.63,3.01-2.73,6.8-3.94,10.26-1.12,3.2.14,6.64-1.99,9.72-.85,1.23-2.52,1.28-3,2.84-1.77,5.69-2,11.88-6.38,16.76-.27.3-.49.84.22,1.26,3.78-1.33,6.37.06,8.38,3.13,2.24,3.42,4.22,6.77,2.97,10.99-.26.89.28,2.01.56,2.99,1.64,5.7,2.66,11.25-3.27,15.67-.94.7-1.63,1.75-2.25,2.74-1.28,2.04-2.21,1.39-3.12-.22-1.09-1.94-2.19-3.87-3.29-5.8-1.19-.65-2.11-.78-2.29.87-.18,1.74-.08,3.43.58,5.08,3.48,8.69,5.1,17.69,5.39,26.92.15,4.8-1.43,9.04-4.52,12.86-6.41,7.91-15.25,11.99-25.82,12.45-5.66.25-11.36-.77-14.61-6.03,0,0-.14-.15-.14-.15-2.48-1.04-2.53-3.21-2.93-5.22,0-.45.02-.89.03-1.34-.26-.76-.11-1.45.39-2.08.21-2.5,1.73-4.31,3.87-5.65,4.86-3.05,10.17-4.66,16.11-3.32,2.91.65,5.91,1.25,6.98,4.52,1.14,3.49-.91,5.67-3.38,7.69-3.44,2.82-9.98,3.15-13.06.8-1.39-1.06-1.83-2.34-.51-3.55,1.29-1.18,2.77-2.76,4.86-1.76,1.88.89-.42,1.72-.5,2.61,1.1.53,2.1.17,2.99-.17,1.14-.44,2.6-1,2.41-2.33-.19-1.4-1.82-1.44-3.03-1.57-2.44-.26-4.78.01-6.74,1.61-3.15,2.57-2.86,5.07.88,6.75,2.44,1.1,5,1.45,7.72.94,10.54-2,17.18-10.89,15.21-20.99-1.9-9.77-5.53-19.11-9.18-28.42-.69-1.75-1.62-3.57-3.71-4.52-.21.31-.41.48-.44.67-.53,3.05-.53,3.04-2.88,3.12-.16,0-.33.32-.46.51-.34.51-.73,1.04-1.46.6-.61-.37-.52-1.01-.32-1.56.39-1.09.86-2.16,1.25-3.26.57-1.58.53-2.75-1.91-2.53-3.84.35-5.17-2.03-5.58-4.82-.31-2.12-.35-4.11-2.84-5.21-1.08-.47-1.32-1.57-.72-2.39,2.61-3.6,3.29-7.35,1.71-11.48-.26-.67-.07-1.75.37-2.34,2.72-3.62,4.23-7.46,3.42-11.92-.09-.49.21-1.27.63-1.58,4.41-3.19,3.59-8.72,7.23-12.6,3.7-3.94,6.65-8.55,10.87-12.21,1.15-1,2.94-2.25,1.82-3.72-1.24-1.62-3.23-.41-4.84.11-.58.19-1.19.5-1.59.91-2.33,2.47-2.3.55-2.46-1.07-6.85-3.25-13.69-1.73-20.35.36-3.26,1.02-6.51,1.82-9.9,2.18-3.04.32-6.06.81-8.8,1.97-2.93,1.25-4.95.72-6.56-1.7-2.68-.5-2.96-2.52-2.45-4.22Z"/>
  <g>
    <path class="cls-1" d="m1136.89,305c-1.02-3.35-2.88-6.1-5.42-8.4-4.58-4.15-10.08-6.63-15.62-9.01-8.99-3.87-18.54-5.75-27.97-8.04-4.5-2.43-8.19-5.57-9.33-11.13,9.05,8.13,21.07,7.33,31.45,11.5-3.75-3.44-7.49-6.84-12.43-8-8.38-1.96-14.61-7.55-21.2-12.57-1.02-.78-1-1.92-1.21-3.03-1.3-6.81-.55-13.8-1.95-20.62-.37-1.79.17-4.01,2.63-4.58.22,2.41.67,4.74,1.96,7.21.88-2.54-.21-4.9,1.05-6.91.61,1.53,1.21,3.07,2.01,5.09,1.07-2.34,1.9-4.17,2.76-6.06,1.35,1.25.73,3.18,2.27,4.21.79-1.35.34-3.08,1.46-4.16,1.55.34,1.43,2.65,3.29,2.82.33-1.4.67-2.8,1.16-4.86.95,1.9,1.61,3.23,2.25,4.51,1.29-.61.9-2.33,2.13-2.55,1.27.75.97,2.64,2.5,3.23.42-1.74.81-3.39,1.33-5.56,1.16,2.25,2.08,4.05,3.01,5.85,2.24-1.41,2.08-4.68,4.83-5.15.89,1.72,1.78,3.44,2.67,5.17.26-.09.52-.18.78-.26.24-1.66.49-3.31.73-4.97,0,0,.18-.09.18-.09l-.05-.2c.54.34,1.08.68,1.62,1.02-.18-3.23-1.82-6.88,2.39-8.89,1.89-1.7,1.82-4.1,1.84-6.28.1-11.05-3.56-20.42-12.26-27.4-1.67-1.88-3.46-3.58-5.84-4.49h0c-4.37-3.11-8.93-5.78-14.33-6.52-.18-.08-.36-.11-.55-.08-1.33-2.03-3.4-1.47-5.28-1.58-.65-1.36-2.02-1.19-3.15-1.43-8.6-1.88-17.29-2.12-26-1.06-4.97.6-9.96,1.24-14.62,3.33-5.46.96-10.2,3.61-14.63,6.83-10.03,7.3-17.18,16.74-20.29,29.1-2.59,7.26-2.26,14.13,2.62,20.38,0,0,.11.17.11.17,4.02,2.81,4.77,6.72,3.84,11.47.4-.6.79-1.2,1.17-1.76,1.25.89-.07,2.74,1.59,3.19.79-1.1,1.57-2.19,2.93-4.07-.41,2.7-.67,4.35-1.1,7.14,1.69-2.87,2.8-4.75,3.96-6.72,1.66,1.46,1.19,3.7,2.5,5.15,1.68-.89.8-3.86,3.18-4.13,2.77,3.59,4.56.56,6.64-1.07.11.86.22,1.67.38,2.89.64-1.17,1.08-1.98,1.6-2.92.89,1.82-.18,3.88,1.25,5.4,1.47-1.4,1.5-3.57,3.38-4.96.13,2.46.25,4.59.42,7.89,1.31-2.72,2.13-4.43,3.19-6.63.18,1.75.3,2.92.45,4.41,1.76-1.97,1.27-4.66,3.22-6.43,1.01,3.47,1.16,6.78.5,10.09-1,5.05-2.31,10.04-3.18,15.1-1.46,8.55-5.94,14.84-12.64,20.05-4.99,3.88-10.32,7.14-15.55,10.6-5.64,2.23-11.57,2.29-18.22,1.77,2.46,2.79,4.68,3.52,7.28,3.27,2.4-.23,4.81-.31,7.2.1-.08-.15-.18-.3-.22-.46-.02-.08.09-.19.14-.29.3.01.6.03.91.04.2.02.39.07.55.12-.16-.06-.34-.1-.55-.12-.1.41.03,1.07-.69.79.87,1.25-.2,2.27-.51,3.34-.92,3.22-2.14,6.37-2.92,9.62-.82,3.43-.39,6.7,2.48,9.19,2.64,2.65,5.47,4.94,9.33,5.36,1.17.13,2.94.82,3.3-.53.42-1.59-1.45-2.06-2.68-2.49-4.33-1.53-5.91-3.97-5.04-8.49.57-2.96,1.61-5.82,2.2-8.77.77-3.81,2.96-5.34,6.71-5.61,9.79-.7,17.83-5.48,23.75-13.08,7.04-9.04,13.85-18.49,14.52-30.8.05-.85.16-2.06,1.48-.88.34,2.1.83,4.19.32,6.35-1.29,5.51-.77,11.05.19,16.51,1.36,7.72,4.92,10.71,12.45,10.03,9.01-.8,16.21,2.16,21.67,9.51.37.5.81.95,1.23,1.41.8.86,1.71,1.66,2.83.62.93-.87.41-1.82-.14-2.71-1.85-3-3.76-5.94-7.01-8.63,4.02.31,7.12,1.99,10.49,1.72,10.66-.84,19.26,4.36,27.74,9.88,1.92,1.25,3.48,2.86,3.19,5.54-.08.72-.24,1.66.75,1.83.77.13,1.36-.47,1.82-1.09.96-1.28,1.28-2.63.78-4.25Zm-91.23-31.83c2.25-8.31,3.72-16.69,3.77-25.32,2.8,9.13-.11,17.32-3.77,25.32Zm35.5,13.91h0c-.72-.04-1.44-.08-2.16-.12-1.99-1.27-4.19-.79-6.28-.63-1.99.15-3.51-.32-4.73-1.9,0,0,0,0,0,0,.06-.2,0-.36-.17-.48h0c-1.34-5.46,0-10.87-.05-16.82.75.96,1.11,1.41,1.46,1.87,2.26,5.73,6.04,10.17,11.05,13.57,1.67-.33,3.01-.1,4.12.76-1.11-.86-2.45-1.09-4.12-.76,1.01,1.7,3.36,1.93,4.23,4.22-1.17.1-2.27.2-3.36.3Z"/>
    <path class="cls-1" d="m1007.81,301.32s.02.04.03.05c.04.02.07.02.11.04-.02-.03-.03-.05-.05-.08-.03,0-.06,0-.08-.01Z"/>
    <path class="cls-1" d="m1113.89,230c.35-.25.19-.42-.09-.57h0s0,0,0,0c0,.02,0,.03,0,.05.03.17.06.35.09.52Z"/>
  </g>
  <g>
    <path class="cls-1" d="m1898.12,895.49c-.29-2.18-1.35-3.67-3.7-3.16-2.79.6-1.49,2.56-1.09,4.15.18.71.28,1.5.66,2.08,1.49,2.23-.66,3.2-1.57,4.38-1.56,2.02-1.86-.72-2.81-1.1-.96-.38-1.56-1.69-2.87-1.12.58.76,1.4,1.69-.07,2.17-1.13.37-2.1-.28-1.92-1.79-6.46,2.42-5.19,9.74-8.32,14.37-1.82,2.7-.37,3.73-3.02,5.53-.29-2.28-1.14-4.22-2.38-6.04-1.29-1.89-1.32-4.11-1.4-6.36-.18-4.69-5.71-7.67-9.87-5.57-1.19.6-2.72,2.56-4.02.22-2.17-3.91-5.58-7.06-6.2-11.95-.4-3.18-1.63-6.65-5.38-7.22-2.86-.44-5.85.02-8.79.08-.3-.4-.6-.8-.9-1.21,1.87-3.14.41-6.56.78-9.83-.09-.31-.18-.62-.27-.93h0c-.28-2.04-1.23-3.89.38-6.1,1.26-1.74,1.01-4.42-.42-6.27-.93-1.2-2.06-3.62-3.82-2.54-2.31,1.41-5.47,1.94-6.44,5.34-.49,1.69-1.87,2.56-4,2.52-3.07-.05-5.3,1.28-6.12,4.92-.59,2.6-1.76,4.93-1.95,7.82-.26,3.95-6.54,7.33-10.76,6.84-3.93-.46-8.01-1.59-11.73.71-3.03,1.87-4.31,7.11-2.59,8.71,5.65,5.23,13,7.81,18.78,12.94,4.43,3.93,5.02,5.62.79,10.1-2.89,3.07-5.65,6.14-7.68,9.98-4.43,8.35-6.72,17.41-9.3,26.41-.63,2.19-1.29,4.63.08,6.32,1.9,2.36,3.28-1.38,5.18-1.15.13.02.25.14.38.21,0,0-.04.13-.04.13-1.75,3.03-.19,6.69-1.66,9.7-1.59,3.28.12,5.5,1.77,7.94.94,1.38,1.81,2.47,3.59,2.78,1.74.3,3.09,1.54,3.93,3.12,2.63,4.93,3.08,10.56,4.67,15.83-.98,1.48-1.05,2.81.14,4.35,3.22,4.16,6.6,8.09,10.79,11.29,2.16,1.65,4.09,1.7,5.5-.45,1.51-2.3,3.83-4.05,4.63-6.84.39-.19,1-.65,1.14-.53,2.71,2.32,4.56.2,5.37-1.75.84-2.02-.59-3.76-2.75-4.77-1.6-.75-1.9-2.18-2.07-4.24-.31-3.81,3.69-5.18,3.7-8.11.02-4.43,3.38-3.61,4.86-2.92,2.01.93,5.49.28,5.9,3.95.04.32,1.13.9,1.36.76,4.07-2.65,7.5.38,11.12,1.29,3.79.96,8.56,2.6,11.25.84,3.25-2.13,4.89-.73,7.3.13,1.34.48,2.6,1.16,4.15,1.07,5.53-.29,8.2,3,8.18,8.62-.04,12.99-1.9,26.15,2.68,38.81.62,1.72.74,4.65,2.95,4.04,1.26-.35,3.32-2.6,3.02-5.09-.14-1.16-.5-2.29-.7-3.44-.21-1.27.03-2.56,1.33-2.9,1.36-.36,3.37-.4,3.56,1.31.23,2.19,1.81,1.85,2.91,2.52,3.36,2.05,6.76,1.83,10.56,1.38,2.36-.28,3.16-.92,3.81-2.79.6-1.72,2.11-3.28.68-5.31-3.14-4.48-6.37-8.78-10.95-12-3.49-2.45-6.42-5.74-9.92-8.95,8.27-.75,8.6-1.07,10.99-8.81.38-1.24,1.05-2.41,1.75-3.51,2.05-3.25,3.44-6.72,4.42-10.48.66-2.55-.3-3.92-2.06-5.2-4.35-3.16-5.79-8.76-10.25-12.11-2.71-2.04-2.06-7.41-4.72-10.08-1.92-1.93-1.71-3.65-1.4-5.71.35-2.3.82-4.58,1.24-6.87-.23-.27-.43-.53-.57-.78.14.25.34.51.57.78.16-.87.31-1.75.47-2.62,0,0,0-.22,0-.22.34-1.48.68-2.96,1.02-4.44.27-.26.53-.51.8-.77.21-.21.43-.42.64-.62.23-.23.47-.46.7-.69,3.26-3.63,6.98-6.87,9.27-11.33,0,0,.12-.1.12-.1.44-1.04.88-2.07,1.33-3.12-2.95-1.16-5.86.74-9.28-.56,2.59-1.2,5.23-2.48,3.75-4.87-1.23-2-4.17-1.57-6.33-.63-1.13.49-2.26,1.51-2.89,2.59-2.59,4.49-6.71,5.08-11.21,5-.1-3.66-.24-7.12,4.74-7.49,1.64-.12,2.52-1.8,3.2-3.34,2.42-5.53,3.66-11.53,6.67-16.86,1-1.77,1.93-4.21.76-6.56-1.54,2.99-.8,6.89-3.88,10.07-.1-1.75-.1-2.84-.24-3.92Zm-12.94,26.44c.9-1.23-.72-1.93-1.37-2.82-.47-.94-.91-2.12-1.93-1.85,1.02-.28,1.46.91,1.93,1.84.65.89,2.27,1.6,1.37,2.83Zm4.13-16.53c-2.03,3.38-3.44,7.28-7.73,8.49-.24.07-.48.15-.64.1.16.05.4-.03.64-.1-.28-.18-.55-.35-.83-.53-.23-5.17,3.39-7.52,6.94-9.98.89-.61,1.55-.64,2.22.1.87.98-.17,1.22-.59,1.91Z"/>
    <path class="cls-1" d="m1886.75,900.72s-.04-.05-.06-.08v.05s-.01.05-.01.05c.03-.01.05-.01.07-.02Z"/>
    <path class="cls-1" d="m1902.23,889.31s0,.02.01.03c0,0,0-.02.01-.02,0,0,0-.01,0-.02,0,0-.01,0-.02.01h0Z"/>
    <path class="cls-1" d="m1903.3,886.3s-.05-.07-.08-.1c0,.02,0,.05,0,.07,0,.02,0,.04.01.06.03-.01.04-.03.07-.04h0Z"/>
    <path class="cls-1" d="m1901.25,880.4c.98,2.45.59,4.4,1.97,5.8.02-1.82.59-3.8-1.97-5.8Z"/>
    <path class="cls-1" d="m1902.25,889.3c1.37-.63,1.23-1.78.98-2.96-1.45.58-1.03,1.84-.98,2.96Z"/>
    <path class="cls-1" d="m1886.68,900.69s0-.05,0-.05c-.04.02-.08.02-.12.02.04.03.07.05.11.08,0,0,0-.03,0-.05Z"/>
    <path class="cls-1" d="m1884.85,900.87c-.03.06-.07.11-.1.2,0,.01,0,.02,0,.04.01,0,.03-.01.04-.02.02-.07.04-.14.06-.22Z"/>
    <path class="cls-1" d="m1886.57,900.66c-.46-.34-.92-.68-1.39-1.02-.11.41-.22.82-.33,1.22.42-.8,1.15-.1,1.72-.21Z"/>
  </g>
  <path class="cls-1" d="m1196.16,879.41c-3.27-1.96-3.7-4.31-3.12-7.41.85-4.49-.27-8.51-2.25-12.48-4.85-9.76-11.02-18.73-16.27-28.25-2.07-3.75-4.19-7.43-7.58-10.13,0,0,.04-.07.04-.07-.41-1.21-1.22-2.06-2.28-2.68h0c-3.41-4.62-7.07-9.08-10.18-13.9-8.69-13.5-20.24-23.62-34.2-31.01-2.02-1.07-3.36-2.49-3.57-4.92-.32-3.61-2.77-4.81-5.82-4.55-9.24.81-17.8,3.47-24.51,10.5-3.63,2.9-6.52,6.39-8.22,10.82-1.42,3.68-.61,6.16,3.52,6.87,4.23.73,7.38,3.26,10.16,6.38,2.06,2.31,4.1,4.65,6.14,6.97,0,0-.01,0-.02-.01,3.12,4.28,6.24,8.55,9.36,12.83,0,0-.27.02-.27.02l-.09.27c-13.97-.81-27.95-.94-41.89.54-3.85.41-5.59-.19-5.09-4.75.89-8.09.56-16.23.02-24.36-.23-3.54-.83-6.94-3.06-9.77-1.18-1.5-2.17-3.76-4.48-3.19-1.99.49-2.1,2.67-2.5,4.44-2.45,10.99-5.13,21.9-10.6,31.84-6.23,12.11-16.45,17.99-29.35,20.02-2.81.44-5.14.55-7.89-.68-11.55-5.21-23.07-10.58-35.47-13.5-13.12-5.02-26.82-6.15-40.67-6.11-1.13,0-2.96-.37-3.19,1.45-.17,1.34,1.33,1.75,2.28,2.28,11.98,6.67,24.34,12.6,35.9,20.05,2.55,1.93,5.11,3.85,8.44,6.37-5.9.74-10.86,1.31-15.8,2-17.08,2.36-34.41,3.74-50.87,9.16-17.4,5.73-33.44,14.05-43.23,31.1-2.44,2.95-4.1,6.39-5.7,9.82-4.19,8.96-2.62,16.76,3.96,24.05,4.24,4.69,6.36,9.87,3.78,16.78-3.68,9.84-4.9,20.32-4.69,30.88.12,6.18,1.35,12.22,3.89,17.89.53,1.18,1.22,2.86,2.61,2.6,1.87-.35.85-2.21.8-3.36-.17-3.98-.53-7.96-.81-11.94.01-.34.03-.68.04-1.01,1.49-7.32,3.93-14.3,7.34-20.92,1.27-1.05,2.65-1.64,4.3-1,9.71,6.75,18.87,14.67,31.36,15.58.87.16,1.73.31,2.6.47,1.62,1.05,3.44,1.46,5.32,1.67,0,0,.24.09.24.09,2.17.04.5,4.09,3.03,3.29,2.53-.8,2.57-3.41,2.91-5.73.99-6.7-1.33-11.99-6.33-16.23,0,0-.11-.12-.11-.12-4.74-5.11-9.87-9.78-15.5-13.86-3.92-3.69-7.9-7.3-11.73-11.08-5.73-5.66-5.91-8.49-2.3-15.99,2.84-5.9,8.29-8.58,13.11-12.08,4.34-1.39,8.6-3.18,13.28-2.88.76.05,1.82.12,2.17.61.76,1.06-.39,1.74-.97,2.46-1.34,1.65-3.75,2.47-4.12,5.22,3.31.08,6.19-.22,9.01-1.16,1.56-.52,3.16-2.23,4.82-.13,1.59,2.03,1.01,3.98-.05,6.03-1.45,2.82-2.76,5.72-4.47,9.31,6.24-1.48,9.49-5.41,12.88-9.15h0c.99-.3,1.64-.97,2.02-1.94h.01c2.03-.95,3.58-2.5,5-4.21,1.81-1.82,3.74-.54,5.49-.04,9.39,2.68,18.72,5.6,28.11,8.27,8.59,2.44,17.03,5.65,26.12,5.7,6.18,1.85,12.52.89,18.8,1.16,10.5.45,21.05-1.54,31.5.79h0c-.27.39-.46.93-.83,1.14-7.42,4.04-7.88,4.39-5.98,12.78,2.43,10.72,4.78,21.37,2.83,32.45-1.69,7.33-2.09,15.05-6.31,21.61-.25.39-.32.96-.3,1.44.05,1.13-.18,2.64.42,3.28,1.02,1.08,2.45.16,3.54-.47,5.35-3.09,10.09-6.9,13.36-12.34.41-.57.83-1.14,1.24-1.71,6.84-8.11,11.77-17.35,15.52-27.29,3.86-8,9.26-15.72,7.76-25.16-.95-5.95-.92-10.02,6.08-11.04,1.6-.23,3.16-1.71,4.46-2.92,15.52-14.4,34.65-23.54,51.01-36.69,3.44-2.77,6.45-2.66,9.2.93,2.99,5.47,5.91,10.98,9.01,16.38,1.01,1.76,1.75,3.11,1.11,5.42-1.3,4.74,1.95,8.3,6.68,7.4,7.08-1.36,14.15-2.94,20.36-7,0,0,.04.07.04.07,3.51-1.57,7.15-2.91,9.77-5.99,0,0,.07-.05.07-.05,2.81-2.81,3.2-6.19-.15-8.2Z"/>
  <path class="cls-1" d="m369.78,225.85c-1.05-2.36-3.07-4.5-2.67-7.24,1.47-9.98-3.7-17.02-9.7-23.76,0,0,0,0,.01,0-1.11-1.91-2.54-3.51-4.35-4.76-.38-.39-.75-.77-1.13-1.16-.67-.8-1.25-1.69-2.01-2.37-18.01-16.15-38.64-25.89-62.93-26.06-6.3-.04-12.05-.91-17.14-4.85,0,0-.01-.06-.01-.06-7.01-6.29-15.54-8.64-24.52-9.46-2.98-.27-6.12.91-7.06,4.4-.98,3.65,2.74,3.17,4.39,4.34,4.45,3.15,5.84,8.42,2.36,11.65-2.68,2.49-4.71,5.52-7.31,8.06-7.26,7.1-14.48,14.25-21.59,21.51-6.32,6.45-11.97,13.45-15.94,21.72.01,0,.03-.01.04-.02-1.39,1.29-2.03,3.02-2.65,4.76-7.15,12.93-11.01,26.74-10.28,41.65.18,3.68-.86,5.81-4.19,7.38-7.19,3.38-12.9,8.72-17.68,15.11-2.39,3.2-4.28,6.68-4.74,10.95,1.85-.17,2.73-1.13,3.61-2.11,4.84-5.42,8.28-6.15,15.07-3.09,1.73.78,3.39,1.19,5.22.33.55-.26,1.62-.54,1.76-.33,1.89,2.85,4.94,1.72,7.45,2.38,4.35,1.16,7.86,3.14,9.21,8.01.47,1.68.87,3.6,2.49,4.88,1.59-1.53,1.65-3.57,1.89-5.47,1.31-10-1.9-18.82-7.44-26.76-1.98-2.84-1.82-4.99-.68-7.94,5.99-15.46,14.67-28.94,27.39-39.48,2.59-2.14,5.13-4.54,8.42-5.51,9.18-2.7,18.32-5.62,27.63-7.79,12.57-2.93,25.45-2.17,38.24-2.32-2.73,3.2-6.08,5.17-10.3,5.53-1.51.13-3.6.21-3.78,2.03-.21,2.11,1.86,2.49,3.51,2.85,0-.01.01-.02.02-.03,9.13,4.66,18.26,5.68,27.41.08,0,0,0,.02,0,.03.79-.05,1.44-.37,1.88-1.07,1.04-.75,2.15-1.41,3.11-2.25,5.22-4.61,7.22-4.86,13.49-1.58,3.08,1.61,5.89,3.76,9.28,4.71,6.92,3.4,14.23,6.09,19.86,11.79.64.65,1.9.71,2.9.91.94.18,1.81-.02,2.11-1.17.74-2.88,1.74-5.79-.64-8.42Zm-16.36-32.5h0c-.4-.8-.91-1.5-1.48-2.13.57.63,1.08,1.33,1.48,2.13Z"/>
  <path class="cls-1" d="m844.56,131.56c6.32-7.71,1.75-22.82-7.81-24.65-3.59-.69-6.16-2.29-8.9-4.23-1.44-1.02-2.89-2.15-4.76-2.32-6.1-3.32-12.35-3.2-18.15.27-5.25,3.14-10.04,5.71-15.12.03-.16-.18-.62-.1-.94-.13-2.6-.75-5.2-1.49-7.8-2.24-1.66-1.12-3.53-1.63-5.45-2.07-18.8-4.28-37.16-2.55-55.16,4.17-8.09,1.83-16.48,1.82-24.5,4.09-9.17,1.88-18.34,3.77-27.52,5.65-.31-.17-.6-.13-.86.11-10.19.72-19.95,3.35-29.58,6.61,4.88-.31,9.73-.73,14.51-1.6,5.44-.99,9.29,1.84,13.13,4.97,6.18,8.59,13.18,15.87,24.87,16.06-3.95,1-7.74,2.74-11.43,1.56-9.02-2.89-18.46-3.59-27.56-6.04-4.96-1.34-10.24-1.62-15.27.46-3.81.34-5.09,3.37-5.88,6.37-2.26,8.57-.9,16.67,3.76,24.18-.09.72.08,1.3.77,1.62,1.59,4.3,4.62,7.53,7.56,10.86,3.61,4.1,7.73,5.59,13.09,3.9,9.05-2.84,17.51-6.96,25.8-11.52,1.32-.73,2.39-2,4.12-.76-1.09,1.56-3.19,1.42-3.89,3.11,0,0-.35.15-.35.15-6.7,4.42-12.72,10.46-21.82,9.65,5.34,1.66,10.68,3.32,16.02,4.98.9.68,1.92.5,2.92.39,11.88,3.36,23.73,7.09,36.09,7.94,8.84.61,17.86,1.92,26.46-1.86,3.9.83,7.43,2.97,11.51,3.28,1.56.12,1.11,1.17.22,1.95-7.64,2.67-15.36,5.22-21.29,12.82,5.28-1.13,7.13-6.36,11.67-6.66,4.02-.27,8.06-1.31,13.33-.07-5,2.57-8.86,4.58-12.75,6.56-5.49,2.8-7.33,4.82-8.1,9.33,5.02-6.58,11.09-9.88,19.19-9.28,9.15.68,16.86-4.14,24.78-7.81,2.18-1.01,4.88-2.08,5.46-5.15,0,0,.01-.03.01-.03,6.99.13,14-.18,20.28-3.61,8.5-4.64,18.18-6.58,26.22-12.21,5.15-.66,8.31-4.46,10.97-8.25,3.32-4.73,2.79-5.41-3.66-7.75,5.6-.4,5.53-2.62,3.19-6.24-2.21-3.44-3.65-7.4-5.8-10.89-1.93-3.13-.44-5.6,1.16-7.77,2.12-2.87,4.97-5.17,7.24-7.94Z"/>
  <path class="cls-1" d="m1642.63,970.3c-.95.3-1.91.58-2.86.87-.82-.14-1.77.38-2.61-.53,1.62-1.14,3.36-1.32,5.09-1.54.77-.1,1.6-.2,1.51-1.27-.08-1.04-.8-1.45-1.75-1.41-.75.04-1.49.18-2.24.28-5.21.73-10.43,1.33-15.69,1.66-4.32.27-7.77-1.27-10.53-4.71-3.46-4.31-6.66-8.85-8.85-13.9-5.39-12.37-15.42-19.07-26.99-24.09-.8-.41-1.59-.88-2.42-1.23-11.54-5-23.84-5.71-36.1-6.59,0,0,0,0,.01.01-.18-.05-.37-.11-.55-.16-3.81-.52-7.62-.91-11.47-.87-7.67-.81-14.9.97-21.84,4.1-3.09,1.4-4.94,5.89-3.61,8.86.83,1.84,2.13,3.34.73,5.47-.32.48.06,1.39.56,1.86,3.4,3.13,4.38,7.54,5.94,11.63,1.9,4.98,5.36,9.26,6.34,14.64.87,4.79,2.57,8.92,7.6,10.57-2.48.44-4.58-.62-6.59-1.85-3.65-2.23-7.25-4.53-10.87-6.8-3-1.89-6.33-2.51-9.79-2.58-.93-.02-1.85-.05-2.2,1.16-.68,2.34-1.16,4.68.48,6.82,2.5,3.27,3.46,6.91,2.82,11.01-.19,1.23-.1,2.4,1.18,3.07.18.15.36.31.54.46-.01,0-.02,0-.03,0,.19.74.63,1.5.55,2.21-.62,5.42,2.22,9.85,3.98,14.56,1.06,2.82,2.46,3.21,5.14,1.89,2.83-1.39,5.12-3.46,6.83-6.17,2.08-2.75,4.17-5.49,6.23-8.26.91-1.23,1.83-2.41,3.23-2.46-4.3,5.58-4.44,12.54-5.52,19.19-.71,2.8-.86,5.69-1.16,8.55-.27,2.63.8,4.63,2.68,6.25,3.92,3.36,8.5,4.53,13.53,3.99,6.4-.68,12.04-3.78,17.93-6.02,2.95-1.12,5.62-2.93,7.74-5.42,1.1-1.12,2.48-1,3.85-.9.53-.12,1.07-.21,1.6-.32-.53.11-1.07.21-1.6.32,3.62,2.14,5.34-1.97,8.59-2.85-.9,2.93-.97,5.61-1.11,8.28-.06,1.12-.24,2.19-.91,3.13-.28.4-.74.87-.38,1.36.4.54,1.05.35,1.63.25.94-.17,1.66-.71,2.36-1.34,2.07-1.84,4.19-3.62,6.26-5.46,2-1.78,4.08-3.49,5.32-5.99.43-.51.95-.96,1.27-1.53,3.06-5.49,7.38-9.54,13.02-12.16,1.97-.92,3.76-2.19,5.33-3.72,1.83-1.78,3.94-3.08,6.25-4.12,2.75-1.25,5.27-2.87,7.15-5.36,1.54-1.14,2.8-2.61,4.49-3.59,4.23-2.46,8.75-4.05,13.48-5.14,2.35-.54,4.67-1.19,7-1.81.82-.22,1.77-.53,1.49-1.63-.28-1.1-1.2-.93-2.05-.66Zm-70.06,49.24h.02s0,0-.02,0Z"/>
  <path class="cls-1" d="m617.3,770.04c-1.53-.83-2.46.82-3.65,1.4-.25.2-.61.61-.72.55-.6-.34-.17-.73.04-1.1,2.1-3.02,1.49-5.05-1.88-6.66-2.57-1.23-4.86-3.06-7.27-4.63h0c-.22-.17-.45-.34-.67-.5-5.11-4.71-11.13-7.58-17.94-8.15-4.2-.35-7.25-1.85-9.16-5.68,0,0-.03-.29-.03-.29-.12-1.14-.48-2.17-1.33-2.98.01,0,.02,0,.03,0,0,0,0,0,0,0,0,0,0,0,0,0h0c-4.29-8.9-10.99-15.79-18.12-23.62-.25,3.91,1.27,5.69,2.97,7.5,5.57,5.93,10.47,12.28,12.01,20.69.41,2.25-.04,3.09-2.35,2.64-4.09-.81-8.19-1.54-12.29-2.28-2.16-.39-3.61-1.57-4.99-3.38-7.64-10.04-16.48-18.9-27.21-25.39-12.61-7.63-26.63-8.04-40.76-6.83-3.08.26-6.38-.01-9.49,2.17,3.82,2.05,7.58,2.46,11.39,2.46,6.02,0,12.04-.06,18.05-.22,7.88-.21,14.44,3.53,20.23,8.11,5.91,4.67,10.58,10.86,15.55,16.62,3.78,4.37,4.48,13.87-.43,18.45-.65.1-1.42.01-1.6.95-1.76.88-3.52,1.77-5.29,2.64-6.49,3.17-13.13,6.16-20.45,6.13-7.44-.04-14.75-1.43-21.62-4.53-6.29-2.83-12.48-5.89-18.77-8.75-6.76-3.07-14-4.35-21.25-5.28-5.12-.66-10.35-1.43-15.44.45-.24-.08-.45-.04-.64.13-3.08.38-5.84,1.52-8.4,3.29.69,1.26,1.59,1.01,2.33.95,8.25-.63,16.3,1.04,24.39,2.16,4.7.65,9.21,2.01,13.14,4.94,8.25,6.15,17.67,9.37,27.56,11.36,0,0,.23.13.23.13l.26-.05c7.59,2.66,15.3,3.85,23.3,2.19,5.1-1.06,10.03-2.61,14.87-4.51.83-.33,1.69-.92,2.51.04.85.99.41,2-.02,2.96-.64,1.42-1.89,1.69-3.28,2.1-2.69.8-5.78-.1-8.14,2.02-.19,0-.38.04-.55.13-15.36-.54-28.45,5.38-40.34,14.75,0,0,0,0,0,0-8.37,4.86-16.63,9.97-26.18,12.21-1.64.38-3.81.55-3.56,2.99.22,2.2,2.02,3.12,4.02,3.15,3.95.07,7.78-.59,11.31-2.53,0,.02,0,.04,0,.06.23.05.41-.01.56-.19,3.21-1,6.23-2.43,9.04-4.33,6.67-3.28,12.98-7.22,19.26-11.2,9.15-5.8,19.02-8.8,29.81-9.09,5.31-.14,9.38.97,10.65,6.94.07.24.13.47.2.71,4.23,14.15,1.21,26.86-7.22,38.55-.73,1.02-1.11,2.31-1.64,3.48,0,0-.12.14-.12.14h0c-1.57,1.36-3.15,2.69-4.7,4.06-1.58,1.39-1.15,2.33.65,3,1.02.38,2.01.32,3.05.14,4.74-.78,7.62-4.12,10.21-7.79,4.31-6.1,6.59-13.14,8.77-20.22.82-2.67,1.59-5.4,4.07-7.09,2.3-.21,4.58-.29,6.86.23,5,1.14,6.48,3.15,5.55,8.2-1,5.48-2.93,10.61-6.41,15.01-1.15,1.45-2.44,2.82-2.58,4.84-2.02,5.2-.54,7.38,4.85,6.99,1.58-.11,3.22-.22,4.58-1.26,0,0,.15.09.15.09l.14-.11c6.23-1.15,10.42-5.3,14-10.18,4.44-6.06,6.08-13.1,6.53-20.54.28-4.66,1.2-5.36,5.64-5.73,7.83-.65,14.39-3.92,19.3-10.34.23-.05.36-.19.4-.42,2-2.49,3.53-5.29,4.97-8.13-.4.06-.78.15-1.13.27-.53.18-1,.44-1.41.78-.28.22-.53.48-.75.78.23-.3.48-.55.75-.78.41-.34.88-.59,1.41-.78.35-.12.73-.21,1.13-.27.2-.2.41-.39.61-.59,2.46-2.85,3.76-6.19,3.68-9.98-.03-1.46.31-3.29-1.27-4.15Zm-13.47-9.89c0-.1,0-.19,0-.28,0,.09,0,.18,0,.28-.01.19-.03.39-.06.59.03-.2.05-.4.06-.59Zm-30.3-17.51c-.23.31-.33.7-.37,1.14.04-.43.14-.83.37-1.14Zm-34.41-9.02h0l-.02.02s.02-.02.02-.02Zm-47.55,56.84c-.27.18-.59.3-.94.39.35-.09.67-.22.94-.39Z"/>
  <ellipse class="cls-1" cx="863.27" cy="472.92" rx="15.79" ry="16.13"/>
  <ellipse class="cls-1" cx="899.74" cy="498.77" rx="8.26" ry="8.43"/>
  <ellipse class="cls-1" cx="1541.12" cy="510.02" rx="12.64" ry="12.91"/>
  <ellipse class="cls-1" cx="1512.31" cy="512.05" rx="6.32" ry="6.45"/>
  <ellipse class="cls-1" cx="1522.16" cy="531.13" rx="9.64" ry="9.85"/>
  <ellipse class="cls-1" cx="117.11" cy="138.09" rx="14.22" ry="14.52"/>
  <ellipse class="cls-1" cx="149.52" cy="135.8" rx="7.11" ry="7.26"/>
  <ellipse class="cls-1" cx="138.44" cy="114.33" rx="10.85" ry="11.08"/>
  <ellipse class="cls-1" cx="866.41" cy="685.04" rx="14.22" ry="14.52"/>
  <ellipse class="cls-1" cx="898.82" cy="682.76" rx="7.11" ry="7.26"/>
  <ellipse class="cls-1" cx="887.74" cy="661.28" rx="10.85" ry="11.08"/>
  <ellipse class="cls-1" cx="68.74" cy="474.52" rx="12.9" ry="13.18"/>
  <ellipse class="cls-1" cx="86.12" cy="503.93" rx="7.65" ry="7.82"/>
  <ellipse class="cls-1" cx="65.07" cy="522.35" rx="9" ry="9.19"/>
  <ellipse class="cls-1" cx="1193.04" cy="103.25" rx="5.5" ry="5.62"/>
  <ellipse class="cls-1" cx="1185.63" cy="90.71" rx="3.26" ry="3.33"/>
  <ellipse class="cls-1" cx="1194.6" cy="82.85" rx="3.84" ry="3.92"/>
  <ellipse class="cls-1" cx="680.23" cy="1010.04" rx="20.24" ry="20.67"/>
  <ellipse class="cls-1" cx="652.97" cy="963.9" rx="12.01" ry="12.27"/>
  <ellipse class="cls-1" cx="685.99" cy="935" rx="14.12" ry="14.42"/>
</svg>